# Blender 5.1.2
# www.blender.org
mtllib discoknife.mtl
o RenderMesh_12482022430
v -0.155458 -0.173753 0.000000
v 0.000000 -0.173753 -0.111044
v 0.000000 -0.173753 0.111044
v -0.129512 -0.173753 -0.078520
v -0.129512 -0.173753 0.078520
v 0.155458 -0.173753 0.000000
v 0.129512 -0.173753 0.078520
v 0.129512 -0.173753 -0.078520
v -0.154017 1.449643 -0.093377
v 0.000000 1.449643 -0.132054
v 0.000000 1.236552 -0.144726
v 0.154017 1.449643 -0.093377
v -0.168797 1.236552 -0.102337
v 0.168797 1.236552 -0.102337
v -0.202612 1.236552 -0.000000
v 0.202612 1.236552 -0.000000
v -0.184872 1.449643 -0.000000
v 0.184872 1.449643 -0.000000
v -0.154017 1.449643 0.093377
v 0.154017 1.449643 0.093377
v -0.168797 1.236552 0.102337
v 0.168797 1.236552 0.102337
v 0.000000 1.236552 0.144726
v 0.000000 1.449643 0.132054
v -0.155458 -0.173753 0.000000
v -0.163499 -0.141949 -0.099125
v -0.129512 -0.173753 -0.078520
v -0.196253 -0.141949 0.000000
v 0.000000 -0.141949 -0.140184
v -0.163499 -0.141949 0.099125
v 0.000000 -0.173753 -0.111044
v -0.129512 -0.173753 0.078520
v 0.129512 -0.173753 -0.078520
v 0.000000 -0.141949 0.140184
v 0.163499 -0.141949 -0.099125
v 0.000000 -0.173753 0.111044
v 0.155458 -0.173753 0.000000
v 0.129512 -0.173753 0.078520
v 0.196253 -0.141949 0.000000
v 0.163499 -0.141949 0.099125
v 0.163499 -0.141949 0.099125
v 0.000000 -0.029284 0.150312
v 0.000000 -0.141949 0.140184
v -0.163499 -0.141949 0.099125
v 0.175311 -0.029284 0.106287
v -0.175311 -0.029284 0.106287
v 0.210431 -0.029284 0.000000
v -0.210431 -0.029284 0.000000
v 0.196253 -0.141949 0.000000
v -0.196253 -0.141949 0.000000
v 0.163499 -0.141949 -0.099125
v -0.163499 -0.141949 -0.099125
v 0.175311 -0.029284 -0.106287
v -0.175311 -0.029284 -0.106287
v 0.000000 -0.029284 -0.150312
v 0.000000 -0.141949 -0.140184
v 0.186025 1.222191 -0.000000
v 0.168675 1.208320 -0.102263
v 0.154978 1.222191 -0.093959
v 0.202466 1.208320 -0.000000
v 0.000000 1.208320 -0.144622
v 0.168675 1.208320 0.102263
v 0.000000 1.222191 -0.132878
v 0.154978 1.222191 0.093959
v -0.154978 1.222191 -0.093959
v 0.000000 1.208320 0.144622
v -0.168675 1.208320 -0.102263
v 0.000000 1.222191 0.132878
v -0.186025 1.222191 -0.000000
v -0.154978 1.222191 0.093959
v -0.202466 1.208320 -0.000000
v -0.168675 1.208320 0.102263
v -0.168675 1.208320 -0.102263
v 0.000000 1.208320 -0.144622
v 0.000000 1.003344 -0.152015
v 0.168675 1.208320 -0.102263
v -0.177297 1.003344 -0.107491
v 0.177297 1.003344 -0.107491
v -0.212815 1.003344 -0.000000
v 0.212815 1.003344 -0.000000
v -0.202466 1.208320 -0.000000
v 0.202466 1.208320 -0.000000
v -0.168675 1.208320 0.102263
v 0.168675 1.208320 0.102263
v -0.177297 1.003344 0.107491
v 0.177297 1.003344 0.107491
v 0.000000 1.003344 0.152015
v 0.000000 1.208320 0.144622
v 0.150593 -0.002071 -0.091300
v 0.000000 0.225030 -0.140968
v 0.164414 0.225030 -0.099680
v 0.197351 0.225030 0.000000
v 0.000000 -0.002071 -0.129118
v 0.180761 -0.002071 0.000000
v -0.150593 -0.002071 -0.091300
v 0.150593 -0.002071 0.091300
v -0.164414 0.225030 -0.099680
v 0.164414 0.225030 0.099680
v -0.197351 0.225030 0.000000
v 0.000000 0.225030 0.140968
v -0.180761 -0.002071 0.000000
v 0.000000 -0.002071 0.129118
v -0.150593 -0.002071 0.091300
v -0.164414 0.225030 0.099680
v 0.000000 0.988373 0.142090
v -0.165722 0.988373 0.100472
v 0.000000 0.975028 0.153007
v 0.165722 0.988373 0.100472
v -0.178454 0.975028 0.108192
v 0.178454 0.975028 0.108192
v -0.198920 0.988373 -0.000000
v 0.198920 0.988373 -0.000000
v -0.214204 0.975028 -0.000000
v 0.214204 0.975028 -0.000000
v -0.178454 0.975028 -0.108192
v 0.178454 0.975028 -0.108192
v -0.165722 0.988373 -0.100472
v 0.165722 0.988373 -0.100472
v 0.000000 0.975028 -0.153007
v 0.000000 0.988373 -0.142090
v -0.181444 0.238189 0.000000
v -0.166247 0.252602 0.100791
v -0.199551 0.252602 0.000000
v -0.166247 0.252602 -0.100791
v -0.151162 0.238189 0.091645
v -0.151162 0.238189 -0.091645
v 0.000000 0.252602 0.142540
v 0.000000 0.252602 -0.142540
v 0.000000 0.238189 0.129606
v 0.000000 0.238189 -0.129606
v 0.151162 0.238189 0.091645
v 0.151162 0.238189 -0.091645
v 0.166247 0.252602 0.100791
v 0.166247 0.252602 -0.100791
v 0.181444 0.238189 0.000000
v 0.199551 0.252602 0.000000
v 0.000000 0.753718 0.154818
v 0.178454 0.975028 0.108192
v 0.000000 0.975028 0.153007
v -0.178454 0.975028 0.108192
v 0.180567 0.753718 0.109473
v -0.180567 0.753718 0.109473
v 0.216740 0.753718 -0.000000
v -0.216740 0.753718 -0.000000
v 0.214204 0.975028 -0.000000
v -0.214204 0.975028 -0.000000
v 0.178454 0.975028 -0.108192
v -0.178454 0.975028 -0.108192
v 0.180567 0.753718 -0.109473
v -0.180567 0.753718 -0.109473
v 0.000000 0.753718 -0.154818
v 0.000000 0.975028 -0.153007
v 0.179163 0.460950 -0.108622
v 0.166247 0.252602 -0.100791
v 0.000000 0.460950 -0.153614
v 0.215055 0.460950 0.000000
v 0.000000 0.252602 -0.142540
v 0.199551 0.252602 0.000000
v -0.166247 0.252602 -0.100791
v 0.166247 0.252602 0.100791
v -0.179163 0.460950 -0.108622
v 0.179163 0.460950 0.108622
v -0.215055 0.460950 0.000000
v 0.000000 0.460950 0.153614
v -0.199551 0.252602 0.000000
v 0.000000 0.252602 0.142540
v -0.166247 0.252602 0.100791
v -0.179163 0.460950 0.108622
v 0.166743 0.731544 0.101091
v 0.000000 0.715942 0.154818
v 0.180567 0.715942 0.109473
v 0.000000 0.731544 0.142965
v 0.200146 0.731544 -0.000000
v -0.166743 0.731544 0.101091
v 0.216740 0.715942 -0.000000
v -0.180567 0.715942 0.109473
v 0.180567 0.715942 -0.109473
v -0.200146 0.731544 -0.000000
v 0.166743 0.731544 -0.101091
v -0.216740 0.715942 -0.000000
v 0.000000 0.715942 -0.154818
v -0.180567 0.715942 -0.109473
v 0.000000 0.731544 -0.142965
v -0.166743 0.731544 -0.101091
v 0.180109 0.491759 0.109195
v 0.000000 0.491759 0.154426
v 0.166668 0.474740 0.101046
v 0.216191 0.491759 0.000000
v 0.000000 0.474740 0.142901
v 0.200057 0.474740 0.000000
v -0.166668 0.474740 0.101046
v 0.166668 0.474740 -0.101046
v -0.180109 0.491759 0.109195
v 0.180109 0.491759 -0.109195
v -0.216191 0.491759 0.000000
v 0.000000 0.491759 -0.154426
v -0.200057 0.474740 0.000000
v 0.000000 0.474740 -0.142901
v -0.166668 0.474740 -0.101046
v -0.180109 0.491759 -0.109195
v -0.180109 0.491759 0.109195
v 0.000000 0.715942 0.154818
v -0.180567 0.715942 0.109473
v -0.216740 0.715942 -0.000000
v 0.000000 0.491759 0.154426
v -0.216191 0.491759 0.000000
v 0.180109 0.491759 0.109195
v -0.180109 0.491759 -0.109195
v 0.180567 0.715942 0.109473
v -0.180567 0.715942 -0.109473
v 0.216740 0.715942 -0.000000
v 0.000000 0.715942 -0.154818
v 0.216191 0.491759 0.000000
v 0.000000 0.491759 -0.154426
v 0.180109 0.491759 -0.109195
v 0.180567 0.715942 -0.109473
v 0.166668 0.474740 -0.101046
v 0.000000 0.460950 -0.153614
v 0.000000 0.474740 -0.142901
v -0.166668 0.474740 -0.101046
v 0.179163 0.460950 -0.108622
v -0.179163 0.460950 -0.108622
v 0.200057 0.474740 0.000000
v -0.200057 0.474740 0.000000
v 0.215055 0.460950 0.000000
v -0.215055 0.460950 0.000000
v 0.179163 0.460950 0.108622
v -0.179163 0.460950 0.108622
v 0.166668 0.474740 0.101046
v -0.166668 0.474740 0.101046
v 0.000000 0.460950 0.153614
v 0.000000 0.474740 0.142901
v 0.000000 0.753718 0.154818
v -0.166743 0.731544 0.101091
v 0.000000 0.731544 0.142965
v 0.166743 0.731544 0.101091
v -0.180567 0.753718 0.109473
v 0.180567 0.753718 0.109473
v -0.216740 0.753718 -0.000000
v 0.216740 0.753718 -0.000000
v -0.200146 0.731544 -0.000000
v 0.200146 0.731544 -0.000000
v -0.166743 0.731544 -0.101091
v 0.166743 0.731544 -0.101091
v -0.180567 0.753718 -0.109473
v 0.180567 0.753718 -0.109473
v 0.000000 0.753718 -0.154818
v 0.000000 0.731544 -0.142965
v -0.164414 0.225030 0.099680
v -0.181444 0.238189 0.000000
v -0.197351 0.225030 0.000000
v -0.164414 0.225030 -0.099680
v -0.151162 0.238189 0.091645
v -0.151162 0.238189 -0.091645
v 0.000000 0.225030 0.140968
v 0.000000 0.225030 -0.140968
v 0.000000 0.238189 0.129606
v 0.000000 0.238189 -0.129606
v 0.151162 0.238189 0.091645
v 0.151162 0.238189 -0.091645
v 0.164414 0.225030 0.099680
v 0.164414 0.225030 -0.099680
v 0.181444 0.238189 0.000000
v 0.197351 0.225030 0.000000
v 0.165722 0.988373 -0.100472
v 0.212815 1.003344 -0.000000
v 0.198920 0.988373 -0.000000
v 0.165722 0.988373 0.100472
v 0.177297 1.003344 -0.107491
v 0.177297 1.003344 0.107491
v 0.000000 1.003344 -0.152015
v 0.000000 1.003344 0.152015
v 0.000000 0.988373 -0.142090
v 0.000000 0.988373 0.142090
v -0.165722 0.988373 -0.100472
v -0.165722 0.988373 0.100472
v -0.177297 1.003344 -0.107491
v -0.177297 1.003344 0.107491
v -0.212815 1.003344 -0.000000
v -0.198920 0.988373 -0.000000
v 0.000000 -0.029284 0.150312
v -0.150593 -0.002071 0.091300
v -0.175311 -0.029284 0.106287
v 0.000000 -0.002071 0.129118
v -0.180761 -0.002071 0.000000
v 0.150593 -0.002071 0.091300
v -0.210431 -0.029284 0.000000
v 0.175311 -0.029284 0.106287
v -0.175311 -0.029284 -0.106287
v 0.180761 -0.002071 0.000000
v -0.150593 -0.002071 -0.091300
v 0.210431 -0.029284 0.000000
v 0.000000 -0.029284 -0.150312
v 0.175311 -0.029284 -0.106287
v 0.000000 -0.002071 -0.129118
v 0.150593 -0.002071 -0.091300
v 0.168797 1.236552 -0.102337
v 0.186025 1.222191 -0.000000
v 0.154978 1.222191 -0.093959
v 0.202612 1.236552 -0.000000
v 0.000000 1.236552 -0.144726
v 0.168797 1.236552 0.102337
v 0.000000 1.222191 -0.132878
v 0.154978 1.222191 0.093959
v -0.154978 1.222191 -0.093959
v 0.000000 1.236552 0.144726
v -0.168797 1.236552 -0.102337
v 0.000000 1.222191 0.132878
v -0.186025 1.222191 -0.000000
v -0.154978 1.222191 0.093959
v -0.202612 1.236552 -0.000000
v -0.168797 1.236552 0.102337
vn -0.0005 -1.0000 0.0005
vn -0.6736 0.0776 -0.7350
vn -0.0005 0.0591 -0.9983
vn -0.0003 0.0592 -0.9982
vn 0.6736 0.0776 -0.7350
vn -0.6835 0.0779 -0.7258
vn 0.6835 0.0779 -0.7258
vn -0.9966 0.0826 0.0005
vn 0.9966 0.0826 0.0005
vn -0.6736 0.0776 0.7350
vn 0.6736 0.0776 0.7350
vn -0.6835 0.0779 0.7258
vn 0.6837 0.0777 0.7256
vn -0.0003 0.0592 0.9982
vn -0.0005 0.0591 0.9983
vn -0.6148 -0.7887 0.0004
vn -0.4549 -0.7725 -0.4432
vn -0.3942 -0.7576 -0.5202
vn -0.6148 -0.7887 0.0005
vn -0.0004 -0.6756 -0.7372
vn -0.4549 -0.7725 0.4432
vn -0.0004 -0.6757 -0.7372
vn -0.3943 -0.7576 0.5202
vn 0.3942 -0.7576 -0.5202
vn -0.0005 -0.6757 0.7372
vn 0.4550 -0.7724 -0.4432
vn -0.0004 -0.6756 0.7372
vn 0.6148 -0.7887 -0.0000
vn 0.3941 -0.7577 0.5202
vn 0.6148 -0.7887 0.0005
vn 0.4549 -0.7725 0.4432
vn 0.6683 -0.1168 0.7347
vn -0.0003 -0.0894 0.9960
vn -0.0000 -0.0895 0.9960
vn -0.6683 -0.1168 0.7347
vn 0.6833 -0.1176 0.7206
vn -0.6834 -0.1177 0.7205
vn 0.9922 -0.1246 0.0004
vn -0.9922 -0.1246 0.0004
vn -0.9922 -0.1249 -0.0000
vn 0.6683 -0.1168 -0.7347
vn -0.6683 -0.1168 -0.7347
vn 0.6834 -0.1177 -0.7205
vn -0.6834 -0.1177 -0.7205
vn -0.0003 -0.0894 -0.9960
vn -0.0000 -0.0895 -0.9960
vn 0.6445 0.7646 0.0005
vn 0.4755 0.7470 -0.4647
vn 0.4137 0.7323 -0.5409
vn -0.0000 0.6462 -0.7632
vn 0.4752 0.7473 0.4645
vn -0.0005 0.6461 -0.7633
vn 0.4137 0.7323 0.5409
vn -0.4137 0.7323 -0.5409
vn -0.0000 0.6462 0.7632
vn -0.4754 0.7471 -0.4646
vn -0.0005 0.6461 0.7633
vn -0.6446 0.7645 0.0003
vn -0.4137 0.7323 0.5409
vn -0.6445 0.7646 0.0005
vn -0.4752 0.7473 0.4645
vn -0.6769 0.0472 -0.7345
vn -0.0005 0.0357 -0.9994
vn 0.6769 0.0472 -0.7345
vn -0.6830 0.0473 -0.7289
vn 0.6830 0.0473 -0.7289
vn -0.9987 0.0504 -0.0000
vn 0.9987 0.0504 -0.0000
vn -0.9987 0.0503 0.0003
vn 0.9987 0.0503 0.0003
vn -0.6769 0.0472 0.7345
vn 0.6769 0.0472 0.7345
vn -0.6830 0.0473 0.7289
vn 0.6830 0.0473 0.7289
vn -0.0005 0.0357 0.9994
vn 0.6747 -0.0682 -0.7349
vn -0.0006 -0.0523 -0.9986
vn 0.6836 -0.0688 -0.7266
vn 0.9973 -0.0728 0.0003
vn -0.0005 -0.0522 -0.9986
vn 0.9973 -0.0728 0.0006
vn -0.6745 -0.0678 -0.7352
vn 0.6746 -0.0679 0.7351
vn -0.6836 -0.0690 -0.7265
vn 0.6836 -0.0688 0.7266
vn -0.9973 -0.0728 0.0003
vn -0.0006 -0.0523 0.9986
vn -0.9973 -0.0728 0.0006
vn -0.0005 -0.0522 0.9986
vn -0.6746 -0.0679 0.7351
vn -0.6836 -0.0688 0.7266
vn -0.0004 0.6333 0.7739
vn -0.4223 0.7208 0.5496
vn -0.0005 0.6333 0.7739
vn 0.4223 0.7208 0.5496
vn -0.4840 0.7358 0.4736
vn 0.4840 0.7361 0.4732
vn -0.6581 0.7529 0.0005
vn 0.6581 0.7529 0.0005
vn -0.6581 0.7529 0.0004
vn 0.6582 0.7529 0.0005
vn -0.4840 0.7358 -0.4736
vn 0.4840 0.7361 -0.4731
vn -0.4223 0.7208 -0.5496
vn 0.4227 0.7206 -0.5496
vn -0.0005 0.6333 -0.7739
vn -0.0004 0.6333 -0.7739
vn -0.6229 -0.7823 0.0004
vn -0.4597 -0.7663 0.4488
vn -0.4600 -0.7662 -0.4488
vn -0.3992 -0.7508 0.5263
vn -0.3991 -0.7509 -0.5261
vn -0.0004 -0.6679 0.7442
vn -0.0004 -0.6679 -0.7442
vn 0.3991 -0.7509 0.5261
vn 0.3991 -0.7509 -0.5261
vn 0.4600 -0.7662 0.4488
vn 0.4600 -0.7662 -0.4488
vn 0.6229 -0.7823 0.0004
vn -0.0006 0.0083 1.0000
vn 0.6802 0.0103 0.7329
vn -0.0004 0.0083 1.0000
vn -0.6802 0.0103 0.7329
vn 0.6813 0.0103 0.7320
vn -0.6813 0.0103 0.7320
vn 0.9999 0.0113 0.0004
vn -0.9999 0.0113 0.0004
vn 0.6802 0.0103 -0.7329
vn -0.6802 0.0103 -0.7329
vn 0.6813 0.0103 -0.7320
vn -0.6813 0.0103 -0.7320
vn -0.0006 0.0083 -1.0000
vn -0.0004 0.0083 -1.0000
vn 0.6834 -0.0697 -0.7267
vn 0.6744 -0.0700 -0.7350
vn -0.0005 -0.0532 -0.9986
vn 0.9973 -0.0739 0.0004
vn -0.0004 -0.0532 -0.9986
vn 0.9973 -0.0737 0.0005
vn -0.6744 -0.0699 -0.7350
vn 0.6744 -0.0699 0.7350
vn -0.6836 -0.0700 -0.7264
vn 0.6834 -0.0697 0.7267
vn -0.9973 -0.0738 0.0004
vn -0.0005 -0.0532 0.9986
vn -0.9973 -0.0737 0.0005
vn -0.0004 -0.0532 0.9986
vn -0.6745 -0.0698 0.7350
vn -0.6834 -0.0697 0.7267
vn 0.4402 0.6952 0.5682
vn -0.0004 0.6053 0.7960
vn 0.5026 0.7102 0.4930
vn 0.6852 0.7283 0.0004
vn -0.4401 0.6952 0.5683
vn -0.5026 0.7102 0.4930
vn 0.5026 0.7102 -0.4930
vn -0.6853 0.7283 0.0005
vn 0.4402 0.6952 -0.5682
vn -0.0004 0.6053 -0.7960
vn -0.5026 0.7102 -0.4930
vn -0.4402 0.6952 -0.5682
vn 0.5299 -0.6684 0.5219
vn -0.0004 -0.5605 0.8282
vn 0.4680 -0.6541 0.5942
vn 0.7254 -0.6883 0.0005
vn 0.7255 -0.6883 0.0004
vn -0.4680 -0.6541 0.5942
vn 0.4680 -0.6541 -0.5942
vn -0.5299 -0.6684 0.5219
vn 0.5299 -0.6684 -0.5219
vn -0.7255 -0.6882 0.0004
vn -0.0004 -0.5605 -0.8282
vn -0.7255 -0.6883 0.0004
vn -0.4680 -0.6541 -0.5942
vn -0.5299 -0.6684 -0.5219
vn -0.6806 -0.0023 0.7326
vn -0.0005 -0.0015 1.0000
vn -0.6809 -0.0023 0.7323
vn -1.0000 -0.0024 0.0003
vn -1.0000 -0.0024 0.0006
vn 0.6809 -0.0027 0.7324
vn -0.6806 -0.0023 -0.7326
vn 0.6809 -0.0023 0.7323
vn -0.6809 -0.0023 -0.7323
vn 1.0000 -0.0024 0.0003
vn -0.0005 -0.0015 -1.0000
vn 1.0000 -0.0024 0.0006
vn 0.6809 -0.0027 -0.7324
vn 0.6809 -0.0023 -0.7323
vn 0.4350 0.7032 -0.5624
vn -0.0003 0.6132 -0.7899
vn -0.0005 0.6132 -0.7900
vn -0.4350 0.7032 -0.5624
vn 0.4971 0.7180 -0.4872
vn -0.4971 0.7180 -0.4872
vn 0.6767 0.7363 0.0004
vn -0.6767 0.7363 0.0004
vn 0.4971 0.7180 0.4872
vn -0.4971 0.7180 0.4872
vn 0.4353 0.7030 0.5623
vn -0.4350 0.7032 0.5624
vn -0.0003 0.6132 0.7899
vn -0.0005 0.6132 0.7900
vn -0.0005 -0.4715 0.8819
vn -0.5193 -0.5661 0.6403
vn 0.5194 -0.5660 0.6402
vn -0.5786 -0.5782 0.5752
vn 0.5786 -0.5782 0.5752
vn -0.8005 -0.5993 0.0006
vn 0.8006 -0.5992 -0.0000
vn -0.8006 -0.5992 0.0003
vn 0.8005 -0.5993 0.0004
vn -0.5193 -0.5661 -0.6403
vn 0.5193 -0.5661 -0.6403
vn -0.5786 -0.5782 -0.5752
vn 0.5786 -0.5782 -0.5752
vn -0.0005 -0.4715 -0.8819
vn -0.4704 0.7538 0.4588
vn -0.6375 0.7704 0.0005
vn -0.6374 0.7705 -0.0000
vn -0.4705 0.7538 -0.4587
vn -0.4087 0.7388 0.5358
vn -0.4087 0.7388 -0.5358
vn -0.0003 0.6534 0.7570
vn -0.0004 0.6534 -0.7570
vn -0.0004 0.6534 0.7570
vn 0.4087 0.7388 0.5358
vn 0.4087 0.7388 -0.5358
vn 0.4705 0.7538 0.4587
vn 0.4704 0.7538 -0.4588
vn 0.6376 0.7704 0.0006
vn 0.6374 0.7705 -0.0000
vn 0.4735 -0.6463 -0.5984
vn 0.7330 -0.6803 -0.0000
vn 0.7330 -0.6802 0.0005
vn 0.4734 -0.6463 0.5985
vn 0.5347 -0.6605 -0.5271
vn 0.5347 -0.6605 0.5271
vn -0.0004 -0.5524 -0.8336
vn -0.0004 -0.5524 0.8336
vn -0.4734 -0.6463 -0.5985
vn -0.4733 -0.6464 0.5985
vn -0.5347 -0.6605 -0.5271
vn -0.5347 -0.6605 0.5271
vn -0.7330 -0.6802 0.0005
vn -0.0005 0.6142 0.7891
vn -0.4343 0.7039 0.5621
vn -0.4969 0.7188 0.4863
vn -0.0005 0.6142 0.7892
vn -0.6757 0.7372 0.0004
vn 0.4342 0.7038 0.5622
vn 0.4969 0.7188 0.4863
vn -0.4969 0.7188 -0.4863
vn 0.6757 0.7372 0.0004
vn -0.4342 0.7038 -0.5622
vn 0.6759 0.7370 -0.0000
vn -0.0005 0.6142 -0.7891
vn 0.4970 0.7188 -0.4861
vn -0.0005 0.6142 -0.7892
vn 0.4344 0.7040 -0.5618
vn 0.4822 -0.7383 -0.4715
vn 0.6545 -0.7561 0.0005
vn 0.4201 -0.7237 -0.5475
vn 0.6545 -0.7561 0.0003
vn -0.0005 -0.6365 -0.7713
vn 0.4822 -0.7383 0.4715
vn 0.4205 -0.7234 0.5476
vn -0.4205 -0.7234 -0.5476
vn -0.0005 -0.6365 0.7713
vn -0.4822 -0.7383 -0.4715
vn -0.6545 -0.7561 0.0005
vn -0.4205 -0.7234 0.5476
vn -0.6546 -0.7560 -0.0000
vn -0.4822 -0.7383 0.4715
vt 0.000000 0.000000
s 1
f 1/1/1 2/1/1 3/1/1
f 2/1/1 1/1/1 4/1/1
f 1/1/1 3/1/1 5/1/1
f 2/1/1 6/1/1 3/1/1
f 3/1/1 6/1/1 7/1/1
f 6/1/1 2/1/1 8/1/1
f 9/1/2 10/1/3 11/1/4
f 12/1/5 11/1/4 10/1/3
f 9/1/2 11/1/4 13/1/6
f 11/1/4 12/1/5 14/1/7
f 15/1/8 9/1/2 13/1/6
f 12/1/5 16/1/9 14/1/7
f 9/1/2 15/1/8 17/1/8
f 16/1/9 12/1/5 18/1/9
f 17/1/8 15/1/8 19/1/10
f 20/1/11 16/1/9 18/1/9
f 21/1/12 19/1/10 15/1/8
f 16/1/9 20/1/11 22/1/13
f 23/1/14 19/1/10 21/1/12
f 20/1/11 23/1/14 22/1/13
f 19/1/10 23/1/14 24/1/15
f 23/1/14 20/1/11 24/1/15
f 25/1/16 26/1/17 27/1/18
f 26/1/17 25/1/16 28/1/19
f 29/1/20 27/1/18 26/1/17
f 25/1/16 30/1/21 28/1/19
f 27/1/18 29/1/20 31/1/22
f 30/1/21 25/1/16 32/1/23
f 29/1/20 33/1/24 31/1/22
f 34/1/25 30/1/21 32/1/23
f 33/1/24 29/1/20 35/1/26
f 32/1/23 36/1/27 34/1/25
f 37/1/28 33/1/24 35/1/26
f 38/1/29 34/1/25 36/1/27
f 35/1/26 39/1/30 37/1/28
f 34/1/25 38/1/29 40/1/31
f 40/1/31 37/1/28 39/1/30
f 37/1/28 40/1/31 38/1/29
f 41/1/32 42/1/33 43/1/34
f 44/1/35 43/1/34 42/1/33
f 42/1/33 41/1/32 45/1/36
f 44/1/35 42/1/33 46/1/37
f 47/1/38 45/1/36 41/1/32
f 48/1/39 44/1/35 46/1/37
f 49/1/38 47/1/38 41/1/32
f 44/1/35 48/1/39 50/1/40
f 51/1/41 47/1/38 49/1/38
f 48/1/39 52/1/42 50/1/40
f 47/1/38 51/1/41 53/1/43
f 52/1/42 48/1/39 54/1/44
f 53/1/43 51/1/41 55/1/45
f 55/1/45 52/1/42 54/1/44
f 55/1/45 51/1/41 56/1/46
f 52/1/42 55/1/45 56/1/46
f 57/1/47 58/1/48 59/1/49
f 58/1/48 57/1/47 60/1/47
f 61/1/50 59/1/49 58/1/48
f 57/1/47 62/1/51 60/1/47
f 59/1/49 61/1/50 63/1/52
f 62/1/51 57/1/47 64/1/53
f 65/1/54 63/1/52 61/1/50
f 64/1/53 66/1/55 62/1/51
f 61/1/50 67/1/56 65/1/54
f 66/1/55 64/1/53 68/1/57
f 69/1/58 65/1/54 67/1/56
f 70/1/59 66/1/55 68/1/57
f 67/1/56 71/1/60 69/1/58
f 66/1/55 70/1/59 72/1/61
f 72/1/61 69/1/58 71/1/60
f 69/1/58 72/1/61 70/1/59
f 73/1/62 74/1/63 75/1/63
f 76/1/64 75/1/63 74/1/63
f 73/1/62 75/1/63 77/1/65
f 75/1/63 76/1/64 78/1/66
f 79/1/67 73/1/62 77/1/65
f 76/1/64 80/1/68 78/1/66
f 73/1/62 79/1/67 81/1/69
f 80/1/68 76/1/64 82/1/70
f 81/1/69 79/1/67 83/1/71
f 84/1/72 80/1/68 82/1/70
f 85/1/73 83/1/71 79/1/67
f 80/1/68 84/1/72 86/1/74
f 87/1/75 83/1/71 85/1/73
f 86/1/74 84/1/72 87/1/75
f 83/1/71 87/1/75 88/1/75
f 87/1/75 84/1/72 88/1/75
f 89/1/76 90/1/77 91/1/78
f 92/1/79 89/1/76 91/1/78
f 90/1/77 89/1/76 93/1/80
f 89/1/76 92/1/79 94/1/81
f 95/1/82 90/1/77 93/1/80
f 94/1/81 92/1/79 96/1/83
f 90/1/77 95/1/82 97/1/84
f 98/1/85 96/1/83 92/1/79
f 95/1/82 99/1/86 97/1/84
f 100/1/87 96/1/83 98/1/85
f 99/1/86 95/1/82 101/1/88
f 96/1/83 100/1/87 102/1/89
f 103/1/90 99/1/86 101/1/88
f 103/1/90 102/1/89 100/1/87
f 99/1/86 103/1/90 104/1/91
f 103/1/90 100/1/87 104/1/91
f 105/1/92 106/1/93 107/1/94
f 107/1/94 108/1/95 105/1/92
f 109/1/96 107/1/94 106/1/93
f 108/1/95 107/1/94 110/1/97
f 106/1/93 111/1/98 109/1/96
f 110/1/97 112/1/99 108/1/95
f 113/1/100 109/1/96 111/1/98
f 112/1/99 110/1/97 114/1/101
f 111/1/98 115/1/102 113/1/100
f 116/1/103 112/1/99 114/1/101
f 115/1/102 111/1/98 117/1/104
f 112/1/99 116/1/103 118/1/105
f 117/1/104 119/1/106 115/1/102
f 119/1/106 118/1/105 116/1/103
f 119/1/106 117/1/104 120/1/107
f 118/1/105 119/1/106 120/1/107
f 121/1/108 122/1/109 123/1/108
f 124/1/110 121/1/108 123/1/108
f 122/1/109 121/1/108 125/1/111
f 121/1/108 124/1/110 126/1/112
f 127/1/113 122/1/109 125/1/111
f 128/1/114 126/1/112 124/1/110
f 125/1/111 129/1/113 127/1/113
f 126/1/112 128/1/114 130/1/114
f 131/1/115 127/1/113 129/1/113
f 128/1/114 132/1/116 130/1/114
f 127/1/113 131/1/115 133/1/117
f 132/1/116 128/1/114 134/1/118
f 135/1/119 133/1/117 131/1/115
f 135/1/119 132/1/116 134/1/118
f 133/1/117 135/1/119 136/1/119
f 134/1/118 136/1/119 135/1/119
f 137/1/120 138/1/121 139/1/122
f 137/1/120 139/1/122 140/1/123
f 138/1/121 137/1/120 141/1/124
f 142/1/125 137/1/120 140/1/123
f 143/1/126 138/1/121 141/1/124
f 140/1/123 144/1/127 142/1/125
f 138/1/121 143/1/126 145/1/126
f 144/1/127 140/1/123 146/1/127
f 143/1/126 147/1/128 145/1/126
f 148/1/129 144/1/127 146/1/127
f 147/1/128 143/1/126 149/1/130
f 148/1/129 150/1/131 144/1/127
f 151/1/132 147/1/128 149/1/130
f 148/1/129 151/1/132 150/1/131
f 147/1/128 151/1/132 152/1/133
f 151/1/132 148/1/129 152/1/133
f 153/1/134 154/1/135 155/1/136
f 156/1/137 154/1/135 153/1/134
f 155/1/136 154/1/135 157/1/138
f 154/1/135 156/1/137 158/1/139
f 159/1/140 155/1/136 157/1/138
f 158/1/139 156/1/137 160/1/141
f 155/1/136 159/1/140 161/1/142
f 162/1/143 160/1/141 156/1/137
f 159/1/140 163/1/144 161/1/142
f 164/1/145 160/1/141 162/1/143
f 163/1/144 159/1/140 165/1/146
f 160/1/141 164/1/145 166/1/147
f 167/1/148 163/1/144 165/1/146
f 167/1/148 166/1/147 164/1/145
f 163/1/144 167/1/148 168/1/149
f 167/1/148 164/1/145 168/1/149
f 169/1/150 170/1/151 171/1/152
f 170/1/151 169/1/150 172/1/151
f 171/1/152 173/1/153 169/1/150
f 172/1/151 174/1/154 170/1/151
f 173/1/153 171/1/152 175/1/153
f 176/1/155 170/1/151 174/1/154
f 177/1/156 173/1/153 175/1/153
f 174/1/154 178/1/157 176/1/155
f 173/1/153 177/1/156 179/1/158
f 180/1/157 176/1/155 178/1/157
f 181/1/159 179/1/158 177/1/156
f 178/1/157 182/1/160 180/1/157
f 179/1/158 181/1/159 183/1/159
f 182/1/160 178/1/157 184/1/161
f 181/1/159 184/1/161 183/1/159
f 184/1/161 181/1/159 182/1/160
f 185/1/162 186/1/163 187/1/164
f 187/1/164 188/1/165 185/1/162
f 189/1/163 187/1/164 186/1/163
f 188/1/165 187/1/164 190/1/166
f 186/1/163 191/1/167 189/1/163
f 192/1/168 188/1/165 190/1/166
f 191/1/167 186/1/163 193/1/169
f 194/1/170 188/1/165 192/1/168
f 195/1/171 191/1/167 193/1/169
f 192/1/168 196/1/172 194/1/170
f 197/1/173 191/1/167 195/1/171
f 196/1/172 192/1/168 198/1/172
f 195/1/171 199/1/174 197/1/173
f 199/1/174 196/1/172 198/1/172
f 199/1/174 195/1/171 200/1/175
f 200/1/175 196/1/172 199/1/174
f 201/1/176 202/1/177 203/1/178
f 204/1/179 201/1/176 203/1/178
f 202/1/177 201/1/176 205/1/177
f 204/1/179 206/1/180 201/1/176
f 205/1/177 207/1/181 202/1/177
f 204/1/179 208/1/182 206/1/180
f 207/1/181 209/1/183 202/1/177
f 208/1/182 204/1/179 210/1/184
f 207/1/181 211/1/185 209/1/183
f 212/1/186 208/1/182 210/1/184
f 211/1/185 207/1/181 213/1/187
f 208/1/182 212/1/186 214/1/186
f 215/1/188 211/1/185 213/1/187
f 212/1/186 215/1/188 214/1/186
f 215/1/188 216/1/189 211/1/185
f 215/1/188 212/1/186 216/1/189
f 217/1/190 218/1/191 219/1/192
f 220/1/193 219/1/192 218/1/191
f 218/1/191 217/1/190 221/1/194
f 220/1/193 218/1/191 222/1/195
f 223/1/196 221/1/194 217/1/190
f 222/1/195 224/1/197 220/1/193
f 221/1/194 223/1/196 225/1/196
f 224/1/197 222/1/195 226/1/197
f 227/1/198 225/1/196 223/1/196
f 228/1/199 224/1/197 226/1/197
f 227/1/198 223/1/196 229/1/200
f 224/1/197 228/1/199 230/1/201
f 231/1/202 227/1/198 229/1/200
f 231/1/202 230/1/201 228/1/199
f 231/1/202 229/1/200 232/1/203
f 230/1/201 231/1/202 232/1/203
f 233/1/204 234/1/205 235/1/204
f 235/1/204 236/1/206 233/1/204
f 234/1/205 233/1/204 237/1/207
f 238/1/208 233/1/204 236/1/206
f 239/1/209 234/1/205 237/1/207
f 236/1/206 240/1/210 238/1/208
f 241/1/211 234/1/205 239/1/209
f 240/1/210 236/1/206 242/1/212
f 239/1/209 243/1/213 241/1/211
f 244/1/214 240/1/210 242/1/212
f 243/1/213 239/1/209 245/1/215
f 246/1/216 240/1/210 244/1/214
f 245/1/215 247/1/217 243/1/213
f 244/1/214 247/1/217 246/1/216
f 243/1/213 247/1/217 248/1/217
f 247/1/217 244/1/214 248/1/217
f 249/1/218 250/1/219 251/1/220
f 250/1/219 252/1/221 251/1/220
f 250/1/219 249/1/218 253/1/222
f 252/1/221 250/1/219 254/1/223
f 255/1/224 253/1/222 249/1/218
f 254/1/223 256/1/225 252/1/221
f 253/1/222 255/1/224 257/1/226
f 254/1/223 258/1/225 256/1/225
f 255/1/224 259/1/227 257/1/226
f 260/1/228 256/1/225 258/1/225
f 255/1/224 261/1/229 259/1/227
f 256/1/225 260/1/228 262/1/230
f 261/1/229 263/1/231 259/1/227
f 263/1/231 262/1/230 260/1/228
f 261/1/229 264/1/232 263/1/231
f 262/1/230 263/1/231 264/1/232
f 265/1/233 266/1/234 267/1/235
f 266/1/234 268/1/236 267/1/235
f 266/1/234 265/1/233 269/1/237
f 266/1/234 270/1/238 268/1/236
f 271/1/239 269/1/237 265/1/233
f 272/1/240 268/1/236 270/1/238
f 271/1/239 265/1/233 273/1/239
f 268/1/236 272/1/240 274/1/240
f 275/1/241 271/1/239 273/1/239
f 276/1/242 274/1/240 272/1/240
f 271/1/239 275/1/241 277/1/243
f 276/1/242 272/1/240 278/1/244
f 279/1/245 277/1/243 275/1/241
f 279/1/245 276/1/242 278/1/244
f 275/1/241 280/1/245 279/1/245
f 276/1/242 279/1/245 280/1/245
f 281/1/246 282/1/247 283/1/248
f 282/1/247 281/1/246 284/1/249
f 285/1/250 283/1/248 282/1/247
f 281/1/246 286/1/251 284/1/249
f 283/1/248 285/1/250 287/1/250
f 281/1/246 288/1/252 286/1/251
f 285/1/250 289/1/253 287/1/250
f 288/1/252 290/1/254 286/1/251
f 289/1/253 285/1/250 291/1/255
f 288/1/252 292/1/256 290/1/254
f 291/1/255 293/1/257 289/1/253
f 294/1/258 290/1/254 292/1/256
f 291/1/255 295/1/259 293/1/257
f 290/1/254 294/1/258 296/1/260
f 296/1/260 293/1/257 295/1/259
f 293/1/257 296/1/260 294/1/258
f 297/1/261 298/1/262 299/1/263
f 298/1/262 297/1/261 300/1/264
f 301/1/265 297/1/261 299/1/263
f 302/1/266 298/1/262 300/1/264
f 301/1/265 299/1/263 303/1/265
f 298/1/262 302/1/266 304/1/267
f 305/1/268 301/1/265 303/1/265
f 306/1/269 304/1/267 302/1/266
f 301/1/265 305/1/268 307/1/270
f 304/1/267 306/1/269 308/1/269
f 309/1/271 307/1/270 305/1/268
f 310/1/272 308/1/269 306/1/269
f 307/1/270 309/1/271 311/1/273
f 310/1/272 306/1/269 312/1/274
f 312/1/274 311/1/273 309/1/271
f 312/1/274 309/1/271 310/1/272
o Sphere
v 0.000000 2.203305 0.000000
v 0.000000 2.112602 -0.299009
v 0.000000 1.964112 -0.447499
v 0.000000 1.770101 -0.527861
v 0.000000 1.665103 -0.538202
v 0.000000 1.560105 -0.527861
v 0.000000 1.366094 -0.447499
v 0.000000 1.126900 0.000000
v 0.020484 2.192964 -0.102981
v 0.040181 2.162337 -0.202004
v 0.058334 2.112602 -0.293264
v 0.074245 2.045669 -0.373254
v 0.087303 1.964112 -0.438900
v 0.097006 1.871064 -0.487680
v 0.102981 1.770101 -0.517718
v 0.104998 1.665103 -0.527861
v 0.102981 1.560105 -0.517718
v 0.097006 1.459142 -0.487680
v 0.087303 1.366094 -0.438900
v 0.074245 1.284536 -0.373254
v 0.058334 1.217604 -0.293264
v 0.040181 1.167869 -0.202004
v 0.020484 1.137242 -0.102981
v 0.040181 2.192964 -0.097006
v 0.078818 2.162337 -0.190283
v 0.114426 2.112602 -0.276248
v 0.145636 2.045669 -0.351598
v 0.171250 1.964112 -0.413435
v 0.190283 1.871064 -0.459384
v 0.202004 1.770101 -0.487680
v 0.205961 1.665103 -0.497234
v 0.202004 1.560105 -0.487680
v 0.190283 1.459142 -0.459384
v 0.171250 1.366094 -0.413435
v 0.145636 1.284536 -0.351598
v 0.114426 1.217604 -0.276248
v 0.078818 1.167869 -0.190283
v 0.040181 1.137242 -0.097006
v 0.058334 2.192964 -0.087303
v 0.114426 2.162337 -0.171250
v 0.166121 2.112602 -0.248617
v 0.211431 2.045669 -0.316429
v 0.248617 1.964112 -0.372082
v 0.276248 1.871064 -0.413435
v 0.293264 1.770101 -0.438900
v 0.299009 1.665103 -0.447499
v 0.293264 1.560105 -0.438900
v 0.276248 1.459142 -0.413435
v 0.248617 1.366094 -0.372082
v 0.211431 1.284536 -0.316429
v 0.166121 1.217604 -0.248617
v 0.114426 1.167869 -0.171250
v 0.058334 1.137242 -0.087303
v 0.074245 2.192964 -0.074245
v 0.145636 2.162337 -0.145636
v 0.211431 2.112602 -0.211431
v 0.269101 2.045669 -0.269101
v 0.316429 1.964112 -0.316429
v 0.351597 1.871064 -0.351598
v 0.373254 1.770101 -0.373254
v 0.380566 1.665103 -0.380566
v 0.373254 1.560105 -0.373254
v 0.351597 1.459142 -0.351598
v 0.316429 1.366094 -0.316429
v 0.269101 1.284536 -0.269101
v 0.211431 1.217604 -0.211431
v 0.145636 1.167869 -0.145636
v 0.074245 1.137242 -0.074245
v 0.087303 2.192964 -0.058334
v 0.171250 2.162337 -0.114426
v 0.248617 2.112602 -0.166121
v 0.316429 2.045669 -0.211431
v 0.372082 1.964112 -0.248617
v 0.413435 1.871064 -0.276248
v 0.438900 1.770101 -0.293264
v 0.447499 1.665103 -0.299009
v 0.438900 1.560105 -0.293264
v 0.413435 1.459142 -0.276248
v 0.372082 1.366094 -0.248617
v 0.316429 1.284536 -0.211431
v 0.248617 1.217604 -0.166121
v 0.171250 1.167869 -0.114426
v 0.087303 1.137242 -0.058334
v 0.097006 2.192964 -0.040181
v 0.190283 2.162337 -0.078818
v 0.276248 2.112602 -0.114426
v 0.351598 2.045669 -0.145636
v 0.413435 1.964112 -0.171250
v 0.459384 1.871064 -0.190283
v 0.487680 1.770101 -0.202004
v 0.497234 1.665103 -0.205961
v 0.487680 1.560105 -0.202004
v 0.459384 1.459142 -0.190283
v 0.413435 1.366094 -0.171250
v 0.351598 1.284536 -0.145636
v 0.276248 1.217604 -0.114426
v 0.190283 1.167869 -0.078818
v 0.097006 1.137242 -0.040181
v 0.102981 2.192964 -0.020484
v 0.202004 2.162337 -0.040181
v 0.293264 2.112602 -0.058334
v 0.373254 2.045669 -0.074245
v 0.438900 1.964112 -0.087303
v 0.487680 1.871064 -0.097006
v 0.517718 1.770101 -0.102980
v 0.527861 1.665103 -0.104998
v 0.517718 1.560105 -0.102980
v 0.487680 1.459142 -0.097006
v 0.438900 1.366094 -0.087303
v 0.373254 1.284536 -0.074245
v 0.293264 1.217604 -0.058334
v 0.202004 1.167869 -0.040181
v 0.102981 1.137242 -0.020484
v 0.104998 2.192964 0.000000
v 0.205961 2.162337 0.000000
v 0.299009 2.112602 0.000000
v 0.380566 2.045669 -0.000000
v 0.447499 1.964112 0.000000
v 0.497234 1.871064 -0.000000
v 0.527861 1.770101 0.000000
v 0.538202 1.665103 0.000000
v 0.527861 1.560105 0.000000
v 0.497234 1.459142 -0.000000
v 0.447499 1.366094 0.000000
v 0.380566 1.284536 -0.000000
v 0.299009 1.217604 0.000000
v 0.205961 1.167869 0.000000
v 0.104998 1.137242 0.000000
v 0.102981 2.192964 0.020484
v 0.202004 2.162337 0.040181
v 0.293264 2.112602 0.058334
v 0.373254 2.045669 0.074245
v 0.438900 1.964112 0.087303
v 0.487680 1.871064 0.097006
v 0.517718 1.770101 0.102981
v 0.527861 1.665103 0.104998
v 0.517718 1.560105 0.102981
v 0.487680 1.459142 0.097006
v 0.438900 1.366094 0.087303
v 0.373254 1.284536 0.074245
v 0.293264 1.217604 0.058334
v 0.202004 1.167869 0.040181
v 0.102981 1.137242 0.020484
v 0.097006 2.192964 0.040181
v 0.190283 2.162337 0.078818
v 0.276248 2.112602 0.114426
v 0.351597 2.045669 0.145636
v 0.413435 1.964112 0.171250
v 0.459384 1.871064 0.190283
v 0.487680 1.770101 0.202004
v 0.497234 1.665103 0.205961
v 0.487680 1.560105 0.202004
v 0.459384 1.459142 0.190283
v 0.413435 1.366094 0.171250
v 0.351597 1.284536 0.145636
v 0.276248 1.217604 0.114426
v 0.190283 1.167869 0.078818
v 0.097006 1.137242 0.040181
v 0.087303 2.192964 0.058334
v 0.171250 2.162337 0.114426
v 0.248617 2.112602 0.166121
v 0.316429 2.045669 0.211431
v 0.372082 1.964112 0.248617
v 0.413435 1.871064 0.276248
v 0.438900 1.770101 0.293264
v 0.447499 1.665103 0.299009
v 0.438900 1.560105 0.293264
v 0.413435 1.459142 0.276248
v 0.372082 1.366094 0.248617
v 0.316429 1.284536 0.211431
v 0.248617 1.217604 0.166121
v 0.171250 1.167869 0.114426
v 0.087303 1.137242 0.058334
v 0.074245 2.192964 0.074245
v 0.145636 2.162337 0.145636
v 0.211431 2.112602 0.211431
v 0.269101 2.045669 0.269101
v 0.316429 1.964112 0.316429
v 0.351597 1.871064 0.351597
v 0.373254 1.770101 0.373254
v 0.380566 1.665103 0.380566
v 0.373254 1.560105 0.373254
v 0.351597 1.459142 0.351597
v 0.316429 1.366094 0.316429
v 0.269101 1.284536 0.269101
v 0.211431 1.217604 0.211431
v 0.145636 1.167869 0.145636
v 0.074245 1.137242 0.074245
v 0.058334 2.192964 0.087303
v 0.114426 2.162337 0.171250
v 0.166120 2.112602 0.248617
v 0.211431 2.045669 0.316429
v 0.248617 1.964112 0.372082
v 0.276248 1.871064 0.413435
v 0.293264 1.770101 0.438900
v 0.299009 1.665103 0.447499
v 0.293264 1.560105 0.438900
v 0.276248 1.459142 0.413435
v 0.248617 1.366094 0.372082
v 0.211431 1.284536 0.316429
v 0.166120 1.217604 0.248617
v 0.114426 1.167869 0.171250
v 0.058334 1.137242 0.087303
v 0.040181 2.192964 0.097005
v 0.078818 2.162337 0.190283
v 0.114426 2.112602 0.276248
v 0.145636 2.045669 0.351597
v 0.171250 1.964112 0.413435
v 0.190283 1.871064 0.459384
v 0.202003 1.770101 0.487680
v 0.205961 1.665103 0.497234
v 0.202003 1.560105 0.487680
v 0.190283 1.459142 0.459384
v 0.171250 1.366094 0.413435
v 0.145636 1.284536 0.351597
v 0.114426 1.217604 0.276248
v 0.078818 1.167869 0.190283
v 0.040181 1.137242 0.097005
v 0.020484 2.192964 0.102980
v 0.040181 2.162337 0.202004
v 0.058334 2.112602 0.293264
v 0.074245 2.045669 0.373254
v 0.087303 1.964112 0.438900
v 0.097006 1.871064 0.487680
v 0.102980 1.770101 0.517718
v 0.104998 1.665103 0.527861
v 0.102980 1.560105 0.517718
v 0.097006 1.459142 0.487680
v 0.087303 1.366094 0.438900
v 0.074245 1.284536 0.373254
v 0.058334 1.217604 0.293264
v 0.040181 1.167869 0.202004
v 0.020484 1.137242 0.102980
v -0.000000 2.192964 0.104998
v -0.000000 2.162337 0.205961
v -0.000000 2.112602 0.299009
v -0.000000 2.045669 0.380566
v -0.000000 1.964112 0.447499
v 0.000000 1.871064 0.497234
v -0.000000 1.770101 0.527861
v -0.000000 1.665103 0.538202
v -0.000000 1.560105 0.527861
v 0.000000 1.459142 0.497234
v -0.000000 1.366094 0.447499
v -0.000000 1.284536 0.380566
v -0.000000 1.217604 0.299009
v -0.000000 1.167869 0.205961
v -0.000000 1.137242 0.104998
v -0.020484 2.192964 0.102980
v -0.040181 2.162337 0.202004
v -0.058334 2.112602 0.293264
v -0.074245 2.045669 0.373254
v -0.087303 1.964112 0.438900
v -0.097006 1.871064 0.487680
v -0.102981 1.770101 0.517718
v -0.104998 1.665103 0.527860
v -0.102981 1.560105 0.517718
v -0.097006 1.459142 0.487680
v -0.087303 1.366094 0.438900
v -0.074245 1.284536 0.373254
v -0.058334 1.217604 0.293264
v -0.040181 1.167869 0.202004
v -0.020484 1.137242 0.102980
v -0.040181 2.192964 0.097005
v -0.078818 2.162337 0.190283
v -0.114426 2.112602 0.276248
v -0.145636 2.045669 0.351597
v -0.171250 1.964112 0.413435
v -0.190283 1.871064 0.459384
v -0.202004 1.770101 0.487680
v -0.205961 1.665103 0.497234
v -0.202004 1.560105 0.487680
v -0.190283 1.459142 0.459384
v -0.171250 1.366094 0.413435
v -0.145636 1.284536 0.351597
v -0.114426 1.217604 0.276248
v -0.078818 1.167869 0.190283
v -0.040181 1.137242 0.097005
v -0.058334 2.192964 0.087303
v -0.114426 2.162337 0.171250
v -0.166121 2.112602 0.248617
v -0.211431 2.045669 0.316429
v -0.248617 1.964112 0.372081
v -0.276248 1.871064 0.413435
v -0.293264 1.770101 0.438900
v -0.299009 1.665103 0.447498
v -0.293264 1.560105 0.438900
v -0.276248 1.459142 0.413435
v -0.248617 1.366094 0.372081
v -0.211431 1.284536 0.316429
v -0.166121 1.217604 0.248617
v -0.114426 1.167869 0.171250
v -0.058334 1.137242 0.087303
v -0.074245 2.192964 0.074245
v -0.145636 2.162337 0.145636
v -0.211431 2.112602 0.211431
v -0.269101 2.045669 0.269101
v -0.316429 1.964112 0.316429
v -0.351597 1.871064 0.351597
v -0.373254 1.770101 0.373254
v -0.380566 1.665103 0.380566
v -0.373254 1.560105 0.373254
v -0.351597 1.459142 0.351597
v -0.316429 1.366094 0.316429
v -0.269101 1.284536 0.269101
v -0.211431 1.217604 0.211431
v -0.145636 1.167869 0.145636
v -0.074245 1.137242 0.074245
v -0.087303 2.192964 0.058334
v -0.171250 2.162337 0.114426
v -0.248617 2.112602 0.166120
v -0.316429 2.045669 0.211431
v -0.372082 1.964112 0.248617
v -0.413435 1.871064 0.276248
v -0.438900 1.770101 0.293264
v -0.447499 1.665103 0.299009
v -0.438900 1.560105 0.293264
v -0.413435 1.459142 0.276248
v -0.372082 1.366094 0.248617
v -0.316429 1.284536 0.211431
v -0.248617 1.217604 0.166120
v -0.171250 1.167869 0.114426
v -0.087303 1.137242 0.058334
v -0.097005 2.192964 0.040181
v -0.190283 2.162337 0.078818
v -0.276248 2.112602 0.114426
v -0.351597 2.045669 0.145636
v -0.413435 1.964112 0.171250
v -0.459384 1.871064 0.190283
v -0.487680 1.770101 0.202003
v -0.497234 1.665103 0.205961
v -0.487680 1.560105 0.202003
v -0.459384 1.459142 0.190283
v -0.413435 1.366094 0.171250
v -0.351597 1.284536 0.145636
v -0.276248 1.217604 0.114426
v -0.190283 1.167869 0.078818
v -0.097005 1.137242 0.040181
v -0.102980 2.192964 0.020484
v -0.202004 2.162337 0.040181
v -0.293264 2.112602 0.058334
v -0.373254 2.045669 0.074245
v -0.438900 1.964112 0.087303
v -0.487680 1.871064 0.097006
v -0.517718 1.770101 0.102980
v -0.527860 1.665103 0.104998
v -0.517718 1.560105 0.102980
v -0.487680 1.459142 0.097006
v -0.438900 1.366094 0.087303
v -0.373254 1.284536 0.074245
v -0.293264 1.217604 0.058334
v -0.202004 1.167869 0.040181
v -0.102980 1.137242 0.020484
v -0.104998 2.192964 -0.000000
v -0.205961 2.162337 -0.000000
v -0.299009 2.112602 -0.000000
v -0.380566 2.045669 -0.000000
v -0.447499 1.964112 -0.000000
v -0.497234 1.871064 -0.000000
v -0.527861 1.770101 -0.000000
v -0.538202 1.665103 -0.000000
v -0.527861 1.560105 -0.000000
v -0.497234 1.459142 -0.000000
v -0.447499 1.366094 -0.000000
v -0.380566 1.284536 -0.000000
v -0.299009 1.217604 -0.000000
v -0.205961 1.167869 -0.000000
v -0.104998 1.137242 -0.000000
v -0.102980 2.192964 -0.020484
v -0.202003 2.162337 -0.040181
v -0.293263 2.112602 -0.058334
v -0.373254 2.045669 -0.074245
v -0.438900 1.964112 -0.087303
v -0.487680 1.871064 -0.097006
v -0.517718 1.770101 -0.102981
v -0.527860 1.665103 -0.104998
v -0.517718 1.560105 -0.102981
v -0.487680 1.459142 -0.097006
v -0.438900 1.366094 -0.087303
v -0.373254 1.284536 -0.074245
v -0.293263 1.217604 -0.058334
v -0.202003 1.167869 -0.040181
v -0.102980 1.137242 -0.020484
v -0.097005 2.192964 -0.040181
v -0.190283 2.162337 -0.078818
v -0.276248 2.112602 -0.114426
v -0.351597 2.045669 -0.145636
v -0.413435 1.964112 -0.171250
v -0.459384 1.871064 -0.190283
v -0.487679 1.770101 -0.202004
v -0.497233 1.665103 -0.205961
v -0.487679 1.560105 -0.202004
v -0.459384 1.459142 -0.190283
v -0.413435 1.366094 -0.171250
v -0.351597 1.284536 -0.145636
v -0.276248 1.217604 -0.114426
v -0.190283 1.167869 -0.078818
v -0.097005 1.137242 -0.040181
v -0.087303 2.192964 -0.058334
v -0.171250 2.162337 -0.114426
v -0.248617 2.112602 -0.166120
v -0.316429 2.045669 -0.211431
v -0.372081 1.964112 -0.248617
v -0.413435 1.871064 -0.276248
v -0.438900 1.770101 -0.293264
v -0.447498 1.665103 -0.299009
v -0.438900 1.560105 -0.293264
v -0.413435 1.459142 -0.276248
v -0.372081 1.366094 -0.248617
v -0.316429 1.284536 -0.211431
v -0.248617 1.217604 -0.166120
v -0.171250 1.167869 -0.114426
v -0.087303 1.137242 -0.058334
v -0.074245 2.192964 -0.074245
v -0.145636 2.162337 -0.145636
v -0.211431 2.112602 -0.211431
v -0.269101 2.045669 -0.269101
v -0.316429 1.964112 -0.316429
v -0.351597 1.871064 -0.351597
v -0.373254 1.770101 -0.373254
v -0.380566 1.665103 -0.380566
v -0.373254 1.560105 -0.373254
v -0.351597 1.459142 -0.351597
v -0.316429 1.366094 -0.316429
v -0.269101 1.284536 -0.269101
v -0.211431 1.217604 -0.211431
v -0.145636 1.167869 -0.145636
v -0.074245 1.137242 -0.074245
v -0.058334 2.192964 -0.087303
v -0.114426 2.162337 -0.171250
v -0.166120 2.112602 -0.248617
v -0.211431 2.045669 -0.316429
v -0.248617 1.964112 -0.372081
v -0.276248 1.871064 -0.413435
v -0.293263 1.770101 -0.438900
v -0.299009 1.665103 -0.447498
v -0.293263 1.560105 -0.438900
v -0.276248 1.459142 -0.413435
v -0.248617 1.366094 -0.372081
v -0.211431 1.284536 -0.316429
v -0.166120 1.217604 -0.248617
v -0.114426 1.167869 -0.171250
v -0.058334 1.137242 -0.087303
v -0.040181 2.192964 -0.097005
v -0.078818 2.162337 -0.190283
v -0.114426 2.112602 -0.276248
v -0.145636 2.045669 -0.351597
v -0.171250 1.964112 -0.413435
v -0.190283 1.871064 -0.459384
v -0.202003 1.770101 -0.487680
v -0.205961 1.665103 -0.497234
v -0.202003 1.560105 -0.487680
v -0.190283 1.459142 -0.459384
v -0.171250 1.366094 -0.413435
v -0.145636 1.284536 -0.351597
v -0.114426 1.217604 -0.276248
v -0.078818 1.167869 -0.190283
v -0.040181 1.137242 -0.097005
v -0.020484 2.192964 -0.102980
v -0.040181 2.162337 -0.202003
v -0.058334 2.112602 -0.293263
v -0.074245 2.045669 -0.373254
v -0.087302 1.964112 -0.438900
v -0.097005 1.871064 -0.487680
v -0.102980 1.770101 -0.517718
v -0.104998 1.665103 -0.527860
v -0.102980 1.560105 -0.517718
v -0.097005 1.459142 -0.487680
v -0.087302 1.366094 -0.438900
v -0.074245 1.284536 -0.373254
v -0.058334 1.217604 -0.293263
v -0.040181 1.167869 -0.202003
v -0.020484 1.137242 -0.102980
v 0.000000 2.192964 -0.104998
v 0.000000 2.162337 -0.205961
v 0.000000 2.045669 -0.380566
v 0.000000 1.871064 -0.497234
v 0.000000 1.459142 -0.497234
v 0.000000 1.284536 -0.380566
v 0.000000 1.217604 -0.299009
v 0.000000 1.167869 -0.205961
v 0.000000 1.137242 -0.104998
vn 0.0975 -0.0975 -0.9904
vn 0.0286 0.9565 -0.2902
vn 0.0938 -0.2890 -0.9527
vn 0.0464 0.8810 -0.4709
vn 0.0865 -0.4696 -0.8786
vn 0.0624 0.7715 -0.6332
vn 0.0759 -0.6326 -0.7708
vn 0.0759 0.6326 -0.7708
vn 0.0624 -0.7715 -0.6332
vn 0.0865 0.4696 -0.8786
vn 0.0464 -0.8810 -0.4709
vn 0.0938 0.2890 -0.9527
vn 0.0286 -0.9565 -0.2902
vn 0.0975 0.0975 -0.9904
vn 0.0097 0.9951 -0.0980
vn 0.0097 -0.9951 -0.0980
vn 0.2889 0.0976 -0.9524
vn 0.0286 0.9951 -0.0942
vn 0.0286 -0.9951 -0.0942
vn 0.2889 -0.0976 -0.9524
vn 0.0846 0.9565 -0.2790
vn 0.2779 -0.2890 -0.9161
vn 0.1374 0.8810 -0.4528
vn 0.2563 -0.4696 -0.8448
vn 0.1847 0.7715 -0.6088
vn 0.2248 -0.6326 -0.7412
vn 0.2248 0.6326 -0.7412
vn 0.1847 -0.7715 -0.6088
vn 0.2563 0.4696 -0.8448
vn 0.1374 -0.8810 -0.4528
vn 0.2779 0.2890 -0.9161
vn 0.0846 -0.9565 -0.2790
vn 0.3651 -0.6326 -0.6831
vn 0.3651 0.6326 -0.6831
vn 0.2999 -0.7715 -0.5611
vn 0.4162 0.4696 -0.7786
vn 0.2230 -0.8810 -0.4173
vn 0.4513 0.2890 -0.8443
vn 0.1374 -0.9565 -0.2571
vn 0.4691 0.0975 -0.8777
vn 0.0464 0.9951 -0.0869
vn 0.0464 -0.9951 -0.0869
vn 0.4691 -0.0975 -0.8777
vn 0.1374 0.9565 -0.2571
vn 0.4513 -0.2890 -0.8443
vn 0.2230 0.8810 -0.4173
vn 0.4162 -0.4696 -0.7786
vn 0.2999 0.7715 -0.5611
vn 0.0625 0.9951 -0.0761
vn 0.0625 -0.9951 -0.0761
vn 0.6314 -0.0975 -0.7693
vn 0.1850 0.9565 -0.2254
vn 0.6073 -0.2890 -0.7400
vn 0.3002 0.8810 -0.3658
vn 0.5601 -0.4696 -0.6825
vn 0.4036 0.7715 -0.4918
vn 0.4913 -0.6326 -0.5987
vn 0.4913 0.6326 -0.5987
vn 0.4036 -0.7715 -0.4918
vn 0.5601 0.4696 -0.6825
vn 0.3002 -0.8810 -0.3658
vn 0.6073 0.2890 -0.7400
vn 0.1850 -0.9565 -0.2254
vn 0.6314 0.0975 -0.7693
vn 0.5987 0.6326 -0.4913
vn 0.4918 -0.7715 -0.4036
vn 0.6825 0.4696 -0.5601
vn 0.3658 -0.8810 -0.3002
vn 0.7400 0.2890 -0.6073
vn 0.2254 -0.9565 -0.1850
vn 0.7693 0.0975 -0.6314
vn 0.0761 0.9951 -0.0625
vn 0.0761 -0.9951 -0.0625
vn 0.7693 -0.0975 -0.6314
vn 0.2254 0.9565 -0.1850
vn 0.7400 -0.2890 -0.6073
vn 0.3658 0.8810 -0.3002
vn 0.6825 -0.4696 -0.5601
vn 0.4918 0.7715 -0.4036
vn 0.5987 -0.6326 -0.4913
vn 0.8777 -0.0975 -0.4691
vn 0.2571 0.9565 -0.1374
vn 0.8443 -0.2890 -0.4513
vn 0.4173 0.8810 -0.2230
vn 0.7786 -0.4696 -0.4162
vn 0.5611 0.7715 -0.2999
vn 0.6831 -0.6326 -0.3651
vn 0.6831 0.6326 -0.3651
vn 0.5611 -0.7715 -0.2999
vn 0.7786 0.4696 -0.4162
vn 0.4173 -0.8810 -0.2230
vn 0.8443 0.2890 -0.4513
vn 0.2571 -0.9565 -0.1374
vn 0.8777 0.0975 -0.4691
vn 0.0869 0.9951 -0.0464
vn 0.0869 -0.9951 -0.0464
vn 0.6088 -0.7715 -0.1847
vn 0.8448 0.4696 -0.2563
vn 0.4528 -0.8810 -0.1374
vn 0.9161 0.2890 -0.2779
vn 0.2790 -0.9565 -0.0846
vn 0.9524 0.0975 -0.2889
vn 0.0942 0.9951 -0.0286
vn 0.0942 -0.9951 -0.0286
vn 0.9524 -0.0975 -0.2889
vn 0.2790 0.9565 -0.0846
vn 0.9161 -0.2890 -0.2779
vn 0.4528 0.8810 -0.1374
vn 0.8448 -0.4696 -0.2563
vn 0.6088 0.7715 -0.1847
vn 0.7412 -0.6326 -0.2248
vn 0.7412 0.6326 -0.2248
vn 0.9527 -0.2890 -0.0938
vn 0.4709 0.8810 -0.0464
vn 0.8786 -0.4696 -0.0865
vn 0.6332 0.7715 -0.0624
vn 0.7708 -0.6326 -0.0759
vn 0.7708 0.6326 -0.0759
vn 0.6332 -0.7715 -0.0624
vn 0.8786 0.4696 -0.0865
vn 0.4709 -0.8810 -0.0464
vn 0.9527 0.2890 -0.0938
vn 0.2902 -0.9565 -0.0286
vn 0.9904 0.0975 -0.0975
vn 0.0980 0.9951 -0.0097
vn 0.0980 -0.9951 -0.0097
vn 0.9904 -0.0975 -0.0975
vn 0.2902 0.9565 -0.0286
vn 0.4709 -0.8810 0.0464
vn 0.9527 0.2890 0.0938
vn 0.2902 -0.9565 0.0286
vn 0.9904 0.0975 0.0976
vn 0.0980 0.9951 0.0097
vn 0.0980 -0.9951 0.0097
vn 0.9904 -0.0975 0.0976
vn 0.2902 0.9565 0.0286
vn 0.9527 -0.2890 0.0938
vn 0.4709 0.8810 0.0464
vn 0.8786 -0.4696 0.0865
vn 0.6332 0.7715 0.0624
vn 0.7708 -0.6326 0.0759
vn 0.7708 0.6326 0.0759
vn 0.6332 -0.7715 0.0624
vn 0.8786 0.4696 0.0865
vn 0.4528 0.8810 0.1374
vn 0.8448 -0.4696 0.2563
vn 0.6088 0.7715 0.1847
vn 0.7412 -0.6326 0.2248
vn 0.7412 0.6326 0.2248
vn 0.6088 -0.7715 0.1847
vn 0.8448 0.4696 0.2563
vn 0.4528 -0.8810 0.1374
vn 0.9161 0.2890 0.2779
vn 0.2790 -0.9565 0.0846
vn 0.9524 0.0975 0.2889
vn 0.0942 0.9951 0.0286
vn 0.0942 -0.9951 0.0286
vn 0.9524 -0.0975 0.2889
vn 0.2790 0.9565 0.0846
vn 0.9161 -0.2890 0.2779
vn 0.8443 0.2890 0.4513
vn 0.2571 -0.9565 0.1374
vn 0.8777 0.0975 0.4691
vn 0.0869 0.9951 0.0464
vn 0.0869 -0.9951 0.0464
vn 0.8777 -0.0975 0.4691
vn 0.2571 0.9565 0.1374
vn 0.8443 -0.2890 0.4513
vn 0.4173 0.8810 0.2230
vn 0.7786 -0.4696 0.4162
vn 0.5611 0.7715 0.2999
vn 0.6831 -0.6326 0.3651
vn 0.6831 0.6326 0.3651
vn 0.5611 -0.7715 0.2999
vn 0.7786 0.4696 0.4162
vn 0.4173 -0.8810 0.2230
vn 0.6825 -0.4696 0.5601
vn 0.4918 0.7715 0.4036
vn 0.5987 -0.6326 0.4913
vn 0.5987 0.6326 0.4913
vn 0.4918 -0.7715 0.4036
vn 0.6825 0.4696 0.5601
vn 0.3658 -0.8810 0.3002
vn 0.7400 0.2890 0.6073
vn 0.2254 -0.9565 0.1850
vn 0.7693 0.0975 0.6314
vn 0.0761 0.9951 0.0625
vn 0.0761 -0.9951 0.0625
vn 0.7693 -0.0975 0.6314
vn 0.2254 0.9565 0.1850
vn 0.7400 -0.2890 0.6073
vn 0.3658 0.8810 0.3002
vn 0.1850 -0.9565 0.2254
vn 0.6314 0.0975 0.7693
vn 0.0625 0.9951 0.0761
vn 0.0625 -0.9951 0.0761
vn 0.6314 -0.0975 0.7693
vn 0.1850 0.9565 0.2254
vn 0.6073 -0.2890 0.7400
vn 0.3002 0.8810 0.3658
vn 0.5601 -0.4696 0.6825
vn 0.4036 0.7715 0.4918
vn 0.4913 -0.6326 0.5987
vn 0.4913 0.6326 0.5987
vn 0.4036 -0.7715 0.4918
vn 0.5601 0.4696 0.6825
vn 0.3002 -0.8810 0.3658
vn 0.6073 0.2890 0.7400
vn 0.2999 0.7715 0.5611
vn 0.3651 -0.6326 0.6831
vn 0.3651 0.6326 0.6831
vn 0.2999 -0.7715 0.5611
vn 0.4162 0.4696 0.7786
vn 0.2230 -0.8810 0.4173
vn 0.4513 0.2890 0.8443
vn 0.1374 -0.9565 0.2571
vn 0.4691 0.0975 0.8777
vn 0.0464 0.9951 0.0869
vn 0.0464 -0.9951 0.0869
vn 0.4691 -0.0975 0.8777
vn 0.1374 0.9565 0.2571
vn 0.4513 -0.2890 0.8443
vn 0.2230 0.8810 0.4173
vn 0.4162 -0.4696 0.7786
vn 0.2889 0.0975 0.9524
vn 0.0286 0.9951 0.0942
vn 0.0286 -0.9951 0.0942
vn 0.2889 -0.0975 0.9524
vn 0.0846 0.9565 0.2790
vn 0.2779 -0.2890 0.9161
vn 0.1374 0.8810 0.4528
vn 0.2563 -0.4696 0.8448
vn 0.1847 0.7715 0.6088
vn 0.2248 -0.6326 0.7412
vn 0.2248 0.6326 0.7412
vn 0.1847 -0.7715 0.6088
vn 0.2563 0.4696 0.8448
vn 0.1374 -0.8810 0.4528
vn 0.2779 0.2890 0.9161
vn 0.0846 -0.9565 0.2790
vn 0.0759 -0.6326 0.7708
vn 0.0759 0.6326 0.7708
vn 0.0624 -0.7715 0.6332
vn 0.0865 0.4696 0.8786
vn 0.0464 -0.8810 0.4709
vn 0.0938 0.2890 0.9527
vn 0.0286 -0.9565 0.2902
vn 0.0975 0.0975 0.9904
vn 0.0097 0.9951 0.0980
vn 0.0097 -0.9951 0.0980
vn 0.0975 -0.0975 0.9904
vn 0.0286 0.9565 0.2902
vn 0.0938 -0.2890 0.9527
vn 0.0464 0.8810 0.4709
vn 0.0865 -0.4696 0.8786
vn 0.0624 0.7715 0.6332
vn -0.0097 -0.9951 0.0980
vn -0.0976 -0.0975 0.9904
vn -0.0286 0.9565 0.2902
vn -0.0938 -0.2890 0.9527
vn -0.0464 0.8810 0.4709
vn -0.0865 -0.4696 0.8786
vn -0.0624 0.7715 0.6332
vn -0.0759 -0.6326 0.7708
vn -0.0759 0.6326 0.7708
vn -0.0624 -0.7715 0.6332
vn -0.0865 0.4696 0.8786
vn -0.0464 -0.8810 0.4709
vn -0.0938 0.2890 0.9527
vn -0.0286 -0.9565 0.2902
vn -0.0976 0.0975 0.9904
vn -0.0097 0.9951 0.0980
vn -0.1847 -0.7715 0.6088
vn -0.2563 0.4696 0.8448
vn -0.1374 -0.8810 0.4528
vn -0.2779 0.2890 0.9161
vn -0.0846 -0.9565 0.2790
vn -0.2889 0.0975 0.9524
vn -0.0286 0.9951 0.0942
vn -0.0286 -0.9951 0.0942
vn -0.2889 -0.0975 0.9524
vn -0.0846 0.9565 0.2790
vn -0.2779 -0.2890 0.9161
vn -0.1374 0.8810 0.4528
vn -0.2563 -0.4696 0.8448
vn -0.1847 0.7715 0.6088
vn -0.2248 -0.6326 0.7412
vn -0.2248 0.6326 0.7412
vn -0.1374 0.9565 0.2571
vn -0.4513 -0.2890 0.8443
vn -0.2230 0.8810 0.4173
vn -0.4162 -0.4696 0.7786
vn -0.2999 0.7715 0.5611
vn -0.3651 -0.6326 0.6831
vn -0.3651 0.6326 0.6831
vn -0.2999 -0.7715 0.5611
vn -0.4162 0.4696 0.7786
vn -0.2230 -0.8810 0.4173
vn -0.4513 0.2890 0.8443
vn -0.1374 -0.9565 0.2571
vn -0.4691 0.0975 0.8777
vn -0.0464 0.9951 0.0869
vn -0.0464 -0.9951 0.0869
vn -0.4691 -0.0975 0.8777
vn -0.5601 0.4696 0.6825
vn -0.3002 -0.8810 0.3658
vn -0.6073 0.2890 0.7400
vn -0.1850 -0.9565 0.2254
vn -0.6314 0.0975 0.7693
vn -0.0625 0.9951 0.0761
vn -0.0625 -0.9951 0.0761
vn -0.6314 -0.0975 0.7693
vn -0.1850 0.9565 0.2254
vn -0.6073 -0.2890 0.7400
vn -0.3002 0.8810 0.3658
vn -0.5601 -0.4696 0.6825
vn -0.4036 0.7715 0.4918
vn -0.4913 -0.6326 0.5987
vn -0.4913 0.6326 0.5987
vn -0.4036 -0.7715 0.4918
vn -0.7400 -0.2890 0.6073
vn -0.3658 0.8810 0.3002
vn -0.6825 -0.4696 0.5601
vn -0.4918 0.7715 0.4036
vn -0.5987 -0.6326 0.4913
vn -0.5987 0.6326 0.4913
vn -0.4918 -0.7715 0.4036
vn -0.6825 0.4696 0.5601
vn -0.3658 -0.8810 0.3002
vn -0.7400 0.2890 0.6073
vn -0.2254 -0.9565 0.1850
vn -0.7693 0.0975 0.6314
vn -0.0761 0.9951 0.0625
vn -0.0761 -0.9951 0.0625
vn -0.7693 -0.0975 0.6314
vn -0.2254 0.9565 0.1850
vn -0.4173 -0.8810 0.2230
vn -0.8443 0.2890 0.4513
vn -0.2571 -0.9565 0.1374
vn -0.8777 0.0975 0.4691
vn -0.0869 0.9951 0.0464
vn -0.0869 -0.9951 0.0464
vn -0.8777 -0.0975 0.4691
vn -0.2571 0.9565 0.1374
vn -0.8443 -0.2890 0.4513
vn -0.4173 0.8810 0.2230
vn -0.7786 -0.4696 0.4162
vn -0.5611 0.7715 0.2999
vn -0.6831 -0.6326 0.3651
vn -0.6831 0.6326 0.3651
vn -0.5611 -0.7715 0.2999
vn -0.7786 0.4696 0.4162
vn -0.4528 0.8810 0.1374
vn -0.8448 -0.4696 0.2563
vn -0.6088 0.7715 0.1847
vn -0.7412 -0.6326 0.2248
vn -0.7412 0.6326 0.2248
vn -0.6088 -0.7715 0.1847
vn -0.8448 0.4696 0.2563
vn -0.4528 -0.8810 0.1374
vn -0.9161 0.2890 0.2779
vn -0.2790 -0.9565 0.0846
vn -0.9524 0.0975 0.2889
vn -0.0942 0.9951 0.0286
vn -0.0942 -0.9951 0.0286
vn -0.9524 -0.0975 0.2889
vn -0.2790 0.9565 0.0846
vn -0.9161 -0.2890 0.2779
vn -0.9527 0.2890 0.0938
vn -0.2902 -0.9565 0.0286
vn -0.9904 0.0975 0.0975
vn -0.0980 0.9951 0.0097
vn -0.0980 -0.9951 0.0097
vn -0.9904 -0.0975 0.0975
vn -0.2902 0.9565 0.0286
vn -0.9527 -0.2890 0.0938
vn -0.4709 0.8810 0.0464
vn -0.8786 -0.4696 0.0865
vn -0.6332 0.7715 0.0624
vn -0.7708 -0.6326 0.0759
vn -0.7708 0.6326 0.0759
vn -0.6332 -0.7715 0.0624
vn -0.8786 0.4696 0.0865
vn -0.4709 -0.8810 0.0464
vn -0.8786 -0.4696 -0.0865
vn -0.6332 0.7715 -0.0624
vn -0.7708 -0.6326 -0.0759
vn -0.7708 0.6326 -0.0759
vn -0.6332 -0.7715 -0.0624
vn -0.8786 0.4696 -0.0865
vn -0.4709 -0.8810 -0.0464
vn -0.9527 0.2890 -0.0938
vn -0.2902 -0.9565 -0.0286
vn -0.9904 0.0975 -0.0976
vn -0.0980 0.9951 -0.0097
vn -0.0980 -0.9951 -0.0097
vn -0.9904 -0.0975 -0.0976
vn -0.2902 0.9565 -0.0286
vn -0.9527 -0.2890 -0.0938
vn -0.4709 0.8810 -0.0464
vn -0.2790 -0.9565 -0.0846
vn -0.9524 0.0975 -0.2889
vn -0.0942 0.9951 -0.0286
vn -0.0942 -0.9951 -0.0286
vn -0.9524 -0.0975 -0.2889
vn -0.2790 0.9565 -0.0846
vn -0.9161 -0.2890 -0.2779
vn -0.4528 0.8810 -0.1374
vn -0.8448 -0.4696 -0.2563
vn -0.6088 0.7715 -0.1847
vn -0.7412 -0.6326 -0.2248
vn -0.7412 0.6326 -0.2248
vn -0.6088 -0.7715 -0.1847
vn -0.8448 0.4696 -0.2563
vn -0.4528 -0.8810 -0.1374
vn -0.9161 0.2890 -0.2779
vn -0.6831 -0.6326 -0.3651
vn -0.6831 0.6326 -0.3651
vn -0.5611 -0.7715 -0.2999
vn -0.7786 0.4696 -0.4162
vn -0.4173 -0.8810 -0.2231
vn -0.8443 0.2890 -0.4513
vn -0.2571 -0.9565 -0.1374
vn -0.8777 0.0975 -0.4691
vn -0.0869 0.9951 -0.0464
vn -0.0869 -0.9951 -0.0464
vn -0.8777 -0.0975 -0.4691
vn -0.2571 0.9565 -0.1374
vn -0.8443 -0.2890 -0.4513
vn -0.4173 0.8810 -0.2231
vn -0.7786 -0.4696 -0.4162
vn -0.5611 0.7715 -0.2999
vn -0.0761 0.9951 -0.0625
vn -0.0761 -0.9951 -0.0625
vn -0.7693 -0.0975 -0.6314
vn -0.2254 0.9565 -0.1850
vn -0.7400 -0.2890 -0.6073
vn -0.3658 0.8810 -0.3002
vn -0.6825 -0.4696 -0.5601
vn -0.4918 0.7715 -0.4036
vn -0.5987 -0.6326 -0.4913
vn -0.5987 0.6326 -0.4913
vn -0.4918 -0.7715 -0.4036
vn -0.6825 0.4696 -0.5601
vn -0.3658 -0.8810 -0.3002
vn -0.7400 0.2890 -0.6073
vn -0.2254 -0.9565 -0.1850
vn -0.7693 0.0975 -0.6314
vn -0.4913 0.6326 -0.5987
vn -0.4036 -0.7715 -0.4918
vn -0.5601 0.4696 -0.6825
vn -0.3002 -0.8810 -0.3658
vn -0.6073 0.2890 -0.7400
vn -0.1850 -0.9565 -0.2254
vn -0.6314 0.0975 -0.7693
vn -0.0625 0.9951 -0.0761
vn -0.0625 -0.9951 -0.0761
vn -0.6314 -0.0975 -0.7693
vn -0.1850 0.9565 -0.2254
vn -0.6073 -0.2890 -0.7400
vn -0.3002 0.8810 -0.3658
vn -0.5601 -0.4696 -0.6825
vn -0.4036 0.7715 -0.4918
vn -0.4913 -0.6326 -0.5987
vn -0.4691 -0.0975 -0.8777
vn -0.1374 0.9565 -0.2571
vn -0.4513 -0.2890 -0.8443
vn -0.2230 0.8810 -0.4173
vn -0.4162 -0.4696 -0.7786
vn -0.2999 0.7715 -0.5611
vn -0.3651 -0.6326 -0.6831
vn -0.3651 0.6326 -0.6831
vn -0.2999 -0.7715 -0.5611
vn -0.4162 0.4696 -0.7786
vn -0.2230 -0.8810 -0.4173
vn -0.4513 0.2890 -0.8443
vn -0.1374 -0.9565 -0.2571
vn -0.4691 0.0975 -0.8777
vn -0.0464 0.9951 -0.0869
vn -0.0464 -0.9951 -0.0869
vn -0.1847 -0.7715 -0.6088
vn -0.2563 0.4696 -0.8448
vn -0.1374 -0.8810 -0.4528
vn -0.2779 0.2890 -0.9161
vn -0.0846 -0.9565 -0.2790
vn -0.2889 0.0975 -0.9524
vn -0.0286 0.9951 -0.0942
vn -0.0286 -0.9951 -0.0942
vn -0.2889 -0.0975 -0.9524
vn -0.0846 0.9565 -0.2790
vn -0.2779 -0.2890 -0.9161
vn -0.1374 0.8810 -0.4528
vn -0.2563 -0.4696 -0.8448
vn -0.1847 0.7715 -0.6088
vn -0.2248 -0.6326 -0.7412
vn -0.2248 0.6326 -0.7412
vn -0.0286 0.9565 -0.2902
vn -0.0938 -0.2890 -0.9527
vn -0.0464 0.8810 -0.4709
vn -0.0865 -0.4696 -0.8786
vn -0.0624 0.7715 -0.6332
vn -0.0759 -0.6326 -0.7708
vn -0.0759 0.6326 -0.7708
vn -0.0624 -0.7715 -0.6332
vn -0.0865 0.4696 -0.8786
vn -0.0464 -0.8810 -0.4709
vn -0.0938 0.2890 -0.9527
vn -0.0286 -0.9565 -0.2902
vn -0.0976 0.0975 -0.9904
vn -0.0097 0.9951 -0.0980
vn -0.0097 -0.9951 -0.0980
vn -0.0976 -0.0975 -0.9904
vt 0.750000 0.437500
vt 0.750000 0.500000
vt 0.718750 0.500000
vt 0.718750 0.437500
vt 0.750000 0.875000
vt 0.750000 0.937500
vt 0.718750 0.937500
vt 0.718750 0.875000
vt 0.750000 0.375000
vt 0.718750 0.375000
vt 0.750000 0.812500
vt 0.718750 0.812500
vt 0.750000 0.312500
vt 0.718750 0.312500
vt 0.750000 0.750000
vt 0.718750 0.750000
vt 0.750000 0.250000
vt 0.718750 0.250000
vt 0.750000 0.687500
vt 0.718750 0.687500
vt 0.750000 0.187500
vt 0.718750 0.187500
vt 0.750000 0.625000
vt 0.718750 0.625000
vt 0.750000 0.125000
vt 0.718750 0.125000
vt 0.750000 0.562500
vt 0.718750 0.562500
vt 0.750000 0.062500
vt 0.718750 0.062500
vt 0.734375 1.000000
vt 0.734375 0.000000
vt 0.687500 0.562500
vt 0.687500 0.500000
vt 0.703125 1.000000
vt 0.687500 0.937500
vt 0.703125 0.000000
vt 0.687500 0.062500
vt 0.687500 0.437500
vt 0.687500 0.875000
vt 0.687500 0.375000
vt 0.687500 0.812500
vt 0.687500 0.312500
vt 0.687500 0.750000
vt 0.687500 0.250000
vt 0.687500 0.687500
vt 0.687500 0.187500
vt 0.687500 0.625000
vt 0.687500 0.125000
vt 0.656250 0.312500
vt 0.656250 0.250000
vt 0.656250 0.750000
vt 0.656250 0.687500
vt 0.656250 0.187500
vt 0.656250 0.625000
vt 0.656250 0.125000
vt 0.656250 0.562500
vt 0.656250 0.062500
vt 0.656250 0.500000
vt 0.671875 1.000000
vt 0.656250 0.937500
vt 0.671875 0.000000
vt 0.656250 0.437500
vt 0.656250 0.875000
vt 0.656250 0.375000
vt 0.656250 0.812500
vt 0.640625 1.000000
vt 0.625000 0.937500
vt 0.640625 0.000000
vt 0.625000 0.062500
vt 0.625000 0.500000
vt 0.625000 0.437500
vt 0.625000 0.875000
vt 0.625000 0.375000
vt 0.625000 0.812500
vt 0.625000 0.312500
vt 0.625000 0.750000
vt 0.625000 0.250000
vt 0.625000 0.687500
vt 0.625000 0.187500
vt 0.625000 0.625000
vt 0.625000 0.125000
vt 0.625000 0.562500
vt 0.593750 0.750000
vt 0.593750 0.687500
vt 0.593750 0.250000
vt 0.593750 0.187500
vt 0.593750 0.625000
vt 0.593750 0.125000
vt 0.593750 0.562500
vt 0.593750 0.062500
vt 0.593750 0.500000
vt 0.609375 1.000000
vt 0.593750 0.937500
vt 0.609375 0.000000
vt 0.593750 0.437500
vt 0.593750 0.875000
vt 0.593750 0.375000
vt 0.593750 0.812500
vt 0.593750 0.312500
vt 0.562500 0.500000
vt 0.562500 0.437500
vt 0.562500 0.937500
vt 0.562500 0.875000
vt 0.562500 0.375000
vt 0.562500 0.812500
vt 0.562500 0.312500
vt 0.562500 0.750000
vt 0.562500 0.250000
vt 0.562500 0.687500
vt 0.562500 0.187500
vt 0.562500 0.625000
vt 0.562500 0.125000
vt 0.562500 0.562500
vt 0.562500 0.062500
vt 0.578125 1.000000
vt 0.578125 0.000000
vt 0.531250 0.250000
vt 0.531250 0.187500
vt 0.531250 0.687500
vt 0.531250 0.625000
vt 0.531250 0.125000
vt 0.531250 0.562500
vt 0.531250 0.062500
vt 0.531250 0.500000
vt 0.546875 1.000000
vt 0.531250 0.937500
vt 0.546875 0.000000
vt 0.531250 0.437500
vt 0.531250 0.875000
vt 0.531250 0.375000
vt 0.531250 0.812500
vt 0.531250 0.312500
vt 0.531250 0.750000
vt 0.500000 0.437500
vt 0.500000 0.375000
vt 0.500000 0.875000
vt 0.500000 0.812500
vt 0.500000 0.312500
vt 0.500000 0.750000
vt 0.500000 0.250000
vt 0.500000 0.687500
vt 0.500000 0.187500
vt 0.500000 0.625000
vt 0.500000 0.125000
vt 0.500000 0.562500
vt 0.500000 0.062500
vt 0.500000 0.500000
vt 0.515625 1.000000
vt 0.500000 0.937500
vt 0.515625 0.000000
vt 0.468750 0.187500
vt 0.468750 0.125000
vt 0.468750 0.625000
vt 0.468750 0.562500
vt 0.468750 0.062500
vt 0.468750 0.500000
vt 0.484375 1.000000
vt 0.468750 0.937500
vt 0.484375 0.000000
vt 0.468750 0.437500
vt 0.468750 0.875000
vt 0.468750 0.375000
vt 0.468750 0.812500
vt 0.468750 0.312500
vt 0.468750 0.750000
vt 0.468750 0.250000
vt 0.468750 0.687500
vt 0.437500 0.875000
vt 0.437500 0.812500
vt 0.437500 0.375000
vt 0.437500 0.312500
vt 0.437500 0.750000
vt 0.437500 0.250000
vt 0.437500 0.687500
vt 0.437500 0.187500
vt 0.437500 0.625000
vt 0.437500 0.125000
vt 0.437500 0.562500
vt 0.437500 0.062500
vt 0.437500 0.500000
vt 0.453125 1.000000
vt 0.437500 0.937500
vt 0.453125 0.000000
vt 0.437500 0.437500
vt 0.406250 0.625000
vt 0.406250 0.562500
vt 0.406250 0.125000
vt 0.406250 0.062500
vt 0.406250 0.500000
vt 0.421875 1.000000
vt 0.406250 0.937500
vt 0.421875 0.000000
vt 0.406250 0.437500
vt 0.406250 0.875000
vt 0.406250 0.375000
vt 0.406250 0.812500
vt 0.406250 0.312500
vt 0.406250 0.750000
vt 0.406250 0.250000
vt 0.406250 0.687500
vt 0.406250 0.187500
vt 0.375000 0.375000
vt 0.375000 0.312500
vt 0.375000 0.812500
vt 0.375000 0.750000
vt 0.375000 0.250000
vt 0.375000 0.687500
vt 0.375000 0.187500
vt 0.375000 0.625000
vt 0.375000 0.125000
vt 0.375000 0.562500
vt 0.375000 0.062500
vt 0.375000 0.500000
vt 0.390625 1.000000
vt 0.375000 0.937500
vt 0.390625 0.000000
vt 0.375000 0.437500
vt 0.375000 0.875000
vt 0.343750 0.125000
vt 0.343750 0.062500
vt 0.343750 0.562500
vt 0.343750 0.500000
vt 0.359375 1.000000
vt 0.343750 0.937500
vt 0.359375 0.000000
vt 0.343750 0.437500
vt 0.343750 0.875000
vt 0.343750 0.375000
vt 0.343750 0.812500
vt 0.343750 0.312500
vt 0.343750 0.750000
vt 0.343750 0.250000
vt 0.343750 0.687500
vt 0.343750 0.187500
vt 0.343750 0.625000
vt 0.312500 0.812500
vt 0.312500 0.750000
vt 0.312500 0.312500
vt 0.312500 0.250000
vt 0.312500 0.687500
vt 0.312500 0.187500
vt 0.312500 0.625000
vt 0.312500 0.125000
vt 0.312500 0.562500
vt 0.312500 0.062500
vt 0.312500 0.500000
vt 0.328125 1.000000
vt 0.312500 0.937500
vt 0.328125 0.000000
vt 0.312500 0.437500
vt 0.312500 0.875000
vt 0.312500 0.375000
vt 0.281250 0.562500
vt 0.281250 0.500000
vt 0.296875 1.000000
vt 0.281250 0.937500
vt 0.296875 0.000000
vt 0.281250 0.062500
vt 0.281250 0.437500
vt 0.281250 0.875000
vt 0.281250 0.375000
vt 0.281250 0.812500
vt 0.281250 0.312500
vt 0.281250 0.750000
vt 0.281250 0.250000
vt 0.281250 0.687500
vt 0.281250 0.187500
vt 0.281250 0.625000
vt 0.281250 0.125000
vt 0.250000 0.312500
vt 0.250000 0.250000
vt 0.250000 0.750000
vt 0.250000 0.687500
vt 0.250000 0.187500
vt 0.250000 0.625000
vt 0.250000 0.125000
vt 0.250000 0.562500
vt 0.250000 0.062500
vt 0.250000 0.500000
vt 0.265625 1.000000
vt 0.250000 0.937500
vt 0.265625 0.000000
vt 0.250000 0.437500
vt 0.250000 0.875000
vt 0.250000 0.375000
vt 0.250000 0.812500
vt 0.234375 0.000000
vt 0.218750 0.062500
vt 0.218750 0.500000
vt 0.218750 0.437500
vt 0.218750 0.937500
vt 0.218750 0.875000
vt 0.218750 0.375000
vt 0.218750 0.812500
vt 0.218750 0.312500
vt 0.218750 0.750000
vt 0.218750 0.250000
vt 0.218750 0.687500
vt 0.218750 0.187500
vt 0.218750 0.625000
vt 0.218750 0.125000
vt 0.218750 0.562500
vt 0.234375 1.000000
vt 0.187500 0.250000
vt 0.187500 0.187500
vt 0.187500 0.687500
vt 0.187500 0.625000
vt 0.187500 0.125000
vt 0.187500 0.562500
vt 0.187500 0.062500
vt 0.187500 0.500000
vt 0.203125 1.000000
vt 0.187500 0.937500
vt 0.203125 0.000000
vt 0.187500 0.437500
vt 0.187500 0.875000
vt 0.187500 0.375000
vt 0.187500 0.812500
vt 0.187500 0.312500
vt 0.187500 0.750000
vt 0.156250 0.937500
vt 0.156250 0.875000
vt 0.156250 0.437500
vt 0.156250 0.375000
vt 0.156250 0.812500
vt 0.156250 0.312500
vt 0.156250 0.750000
vt 0.156250 0.250000
vt 0.156250 0.687500
vt 0.156250 0.187500
vt 0.156250 0.625000
vt 0.156250 0.125000
vt 0.156250 0.562500
vt 0.156250 0.062500
vt 0.156250 0.500000
vt 0.171875 1.000000
vt 0.171875 0.000000
vt 0.125000 0.687500
vt 0.125000 0.625000
vt 0.125000 0.187500
vt 0.125000 0.125000
vt 0.125000 0.562500
vt 0.125000 0.062500
vt 0.125000 0.500000
vt 0.140625 1.000000
vt 0.125000 0.937500
vt 0.140625 0.000000
vt 0.125000 0.437500
vt 0.125000 0.875000
vt 0.125000 0.375000
vt 0.125000 0.812500
vt 0.125000 0.312500
vt 0.125000 0.750000
vt 0.125000 0.250000
vt 0.093750 0.437500
vt 0.093750 0.375000
vt 0.093750 0.875000
vt 0.093750 0.812500
vt 0.093750 0.312500
vt 0.093750 0.750000
vt 0.093750 0.250000
vt 0.093750 0.687500
vt 0.093750 0.187500
vt 0.093750 0.625000
vt 0.093750 0.125000
vt 0.093750 0.562500
vt 0.093750 0.062500
vt 0.093750 0.500000
vt 0.109375 1.000000
vt 0.093750 0.937500
vt 0.109375 0.000000
vt 0.062500 0.187500
vt 0.062500 0.125000
vt 0.062500 0.625000
vt 0.062500 0.562500
vt 0.062500 0.062500
vt 0.062500 0.500000
vt 0.078125 1.000000
vt 0.062500 0.937500
vt 0.078125 0.000000
vt 0.062500 0.437500
vt 0.062500 0.875000
vt 0.062500 0.375000
vt 0.062500 0.812500
vt 0.062500 0.312500
vt 0.062500 0.750000
vt 0.062500 0.250000
vt 0.062500 0.687500
vt 0.031250 0.875000
vt 0.031250 0.812500
vt 0.031250 0.375000
vt 0.031250 0.312500
vt 0.031250 0.750000
vt 0.031250 0.250000
vt 0.031250 0.687500
vt 0.031250 0.187500
vt 0.031250 0.625000
vt 0.031250 0.125000
vt 0.031250 0.562500
vt 0.031250 0.062500
vt 0.031250 0.500000
vt 0.046875 1.000000
vt 0.031250 0.937500
vt 0.046875 0.000000
vt 0.031250 0.437500
vt 0.000000 0.625000
vt 0.000000 0.562500
vt 0.000000 0.125000
vt 0.000000 0.062500
vt 0.000000 0.500000
vt 0.015625 1.000000
vt 0.000000 0.937500
vt 0.015625 0.000000
vt 0.000000 0.437500
vt 0.000000 0.875000
vt 0.000000 0.375000
vt 0.000000 0.812500
vt 0.000000 0.312500
vt 0.000000 0.750000
vt 0.000000 0.250000
vt 0.000000 0.687500
vt 0.000000 0.187500
vt 1.000000 0.312500
vt 1.000000 0.375000
vt 0.968750 0.375000
vt 0.968750 0.312500
vt 1.000000 0.750000
vt 1.000000 0.812500
vt 0.968750 0.812500
vt 0.968750 0.750000
vt 1.000000 0.250000
vt 0.968750 0.250000
vt 1.000000 0.687500
vt 0.968750 0.687500
vt 1.000000 0.187500
vt 0.968750 0.187500
vt 1.000000 0.625000
vt 0.968750 0.625000
vt 1.000000 0.125000
vt 0.968750 0.125000
vt 1.000000 0.562500
vt 0.968750 0.562500
vt 1.000000 0.062500
vt 0.968750 0.062500
vt 1.000000 0.500000
vt 0.968750 0.500000
vt 1.000000 0.937500
vt 0.984375 1.000000
vt 0.968750 0.937500
vt 0.984375 0.000000
vt 1.000000 0.437500
vt 0.968750 0.437500
vt 1.000000 0.875000
vt 0.968750 0.875000
vt 0.937500 0.125000
vt 0.937500 0.062500
vt 0.937500 0.562500
vt 0.937500 0.500000
vt 0.953125 1.000000
vt 0.937500 0.937500
vt 0.953125 0.000000
vt 0.937500 0.437500
vt 0.937500 0.875000
vt 0.937500 0.375000
vt 0.937500 0.812500
vt 0.937500 0.312500
vt 0.937500 0.750000
vt 0.937500 0.250000
vt 0.937500 0.687500
vt 0.937500 0.187500
vt 0.937500 0.625000
vt 0.906250 0.312500
vt 0.906250 0.250000
vt 0.906250 0.750000
vt 0.906250 0.687500
vt 0.906250 0.187500
vt 0.906250 0.625000
vt 0.906250 0.125000
vt 0.906250 0.562500
vt 0.906250 0.062500
vt 0.906250 0.500000
vt 0.921875 1.000000
vt 0.906250 0.937500
vt 0.921875 0.000000
vt 0.906250 0.437500
vt 0.906250 0.875000
vt 0.906250 0.375000
vt 0.906250 0.812500
vt 0.890625 1.000000
vt 0.875000 0.937500
vt 0.890625 0.000000
vt 0.875000 0.062500
vt 0.875000 0.500000
vt 0.875000 0.437500
vt 0.875000 0.875000
vt 0.875000 0.375000
vt 0.875000 0.812500
vt 0.875000 0.312500
vt 0.875000 0.750000
vt 0.875000 0.250000
vt 0.875000 0.687500
vt 0.875000 0.187500
vt 0.875000 0.625000
vt 0.875000 0.125000
vt 0.875000 0.562500
vt 0.843750 0.750000
vt 0.843750 0.687500
vt 0.843750 0.250000
vt 0.843750 0.187500
vt 0.843750 0.625000
vt 0.843750 0.125000
vt 0.843750 0.562500
vt 0.843750 0.062500
vt 0.843750 0.500000
vt 0.859375 1.000000
vt 0.843750 0.937500
vt 0.859375 0.000000
vt 0.843750 0.437500
vt 0.843750 0.875000
vt 0.843750 0.375000
vt 0.843750 0.812500
vt 0.843750 0.312500
vt 0.812500 0.500000
vt 0.812500 0.437500
vt 0.812500 0.937500
vt 0.812500 0.875000
vt 0.812500 0.375000
vt 0.812500 0.812500
vt 0.812500 0.312500
vt 0.812500 0.750000
vt 0.812500 0.250000
vt 0.812500 0.687500
vt 0.812500 0.187500
vt 0.812500 0.625000
vt 0.812500 0.125000
vt 0.812500 0.562500
vt 0.812500 0.062500
vt 0.828125 1.000000
vt 0.828125 0.000000
vt 0.781250 0.250000
vt 0.781250 0.187500
vt 0.781250 0.687500
vt 0.781250 0.625000
vt 0.781250 0.125000
vt 0.781250 0.562500
vt 0.781250 0.062500
vt 0.781250 0.500000
vt 0.796875 1.000000
vt 0.781250 0.937500
vt 0.796875 0.000000
vt 0.781250 0.437500
vt 0.781250 0.875000
vt 0.781250 0.375000
vt 0.781250 0.812500
vt 0.781250 0.312500
vt 0.781250 0.750000
vt 0.765625 1.000000
vt 0.765625 0.000000
s 0
f 318/2/275 317/3/275 328/4/275 329/5/275
f 787/6/276 786/7/276 321/8/276 322/9/276
f 790/10/277 318/2/277 329/5/277 330/11/277
f 314/12/278 787/6/278 322/9/278 323/13/278
f 319/14/279 790/10/279 330/11/279 331/15/279
f 788/16/280 314/12/280 323/13/280 324/17/280
f 791/18/281 319/14/281 331/15/281 332/19/281
f 315/20/282 788/16/282 324/17/282 325/21/282
f 792/22/283 791/18/283 332/19/283 333/23/283
f 789/24/284 315/20/284 325/21/284 326/25/284
f 793/26/285 792/22/285 333/23/285 334/27/285
f 316/28/286 789/24/286 326/25/286 327/29/286
f 794/30/287 793/26/287 334/27/287 335/31/287
f 317/3/288 316/28/288 327/29/288 328/4/288
f 786/7/289 313/32/289 321/8/289
f 320/33/290 794/30/290 335/31/290
f 328/4/291 327/29/291 342/34/291 343/35/291
f 321/8/292 313/36/292 336/37/292
f 320/38/293 335/31/293 350/39/293
f 329/5/294 328/4/294 343/35/294 344/40/294
f 322/9/295 321/8/295 336/37/295 337/41/295
f 330/11/296 329/5/296 344/40/296 345/42/296
f 323/13/297 322/9/297 337/41/297 338/43/297
f 331/15/298 330/11/298 345/42/298 346/44/298
f 324/17/299 323/13/299 338/43/299 339/45/299
f 332/19/300 331/15/300 346/44/300 347/46/300
f 325/21/301 324/17/301 339/45/301 340/47/301
f 333/23/302 332/19/302 347/46/302 348/48/302
f 326/25/303 325/21/303 340/47/303 341/49/303
f 334/27/304 333/23/304 348/48/304 349/50/304
f 327/29/305 326/25/305 341/49/305 342/34/305
f 335/31/306 334/27/306 349/50/306 350/39/306
f 347/46/307 346/44/307 361/51/307 362/52/307
f 340/47/308 339/45/308 354/53/308 355/54/308
f 348/48/309 347/46/309 362/52/309 363/55/309
f 341/49/310 340/47/310 355/54/310 356/56/310
f 349/50/311 348/48/311 363/55/311 364/57/311
f 342/34/312 341/49/312 356/56/312 357/58/312
f 350/39/313 349/50/313 364/57/313 365/59/313
f 343/35/314 342/34/314 357/58/314 358/60/314
f 336/37/315 313/61/315 351/62/315
f 320/63/316 350/39/316 365/59/316
f 344/40/317 343/35/317 358/60/317 359/64/317
f 337/41/318 336/37/318 351/62/318 352/65/318
f 345/42/319 344/40/319 359/64/319 360/66/319
f 338/43/320 337/41/320 352/65/320 353/67/320
f 346/44/321 345/42/321 360/66/321 361/51/321
f 339/45/322 338/43/322 353/67/322 354/53/322
f 351/62/323 313/68/323 366/69/323
f 320/70/324 365/59/324 380/71/324
f 359/64/325 358/60/325 373/72/325 374/73/325
f 352/65/326 351/62/326 366/69/326 367/74/326
f 360/66/327 359/64/327 374/73/327 375/75/327
f 353/67/328 352/65/328 367/74/328 368/76/328
f 361/51/329 360/66/329 375/75/329 376/77/329
f 354/53/330 353/67/330 368/76/330 369/78/330
f 362/52/331 361/51/331 376/77/331 377/79/331
f 355/54/332 354/53/332 369/78/332 370/80/332
f 363/55/333 362/52/333 377/79/333 378/81/333
f 356/56/334 355/54/334 370/80/334 371/82/334
f 364/57/335 363/55/335 378/81/335 379/83/335
f 357/58/336 356/56/336 371/82/336 372/84/336
f 365/59/337 364/57/337 379/83/337 380/71/337
f 358/60/338 357/58/338 372/84/338 373/72/338
f 370/80/339 369/78/339 384/85/339 385/86/339
f 378/81/340 377/79/340 392/87/340 393/88/340
f 371/82/341 370/80/341 385/86/341 386/89/341
f 379/83/342 378/81/342 393/88/342 394/90/342
f 372/84/343 371/82/343 386/89/343 387/91/343
f 380/71/344 379/83/344 394/90/344 395/92/344
f 373/72/345 372/84/345 387/91/345 388/93/345
f 366/69/346 313/94/346 381/95/346
f 320/96/347 380/71/347 395/92/347
f 374/73/348 373/72/348 388/93/348 389/97/348
f 367/74/349 366/69/349 381/95/349 382/98/349
f 375/75/350 374/73/350 389/97/350 390/99/350
f 368/76/351 367/74/351 382/98/351 383/100/351
f 376/77/352 375/75/352 390/99/352 391/101/352
f 369/78/353 368/76/353 383/100/353 384/85/353
f 377/79/354 376/77/354 391/101/354 392/87/354
f 389/97/355 388/93/355 403/102/355 404/103/355
f 382/98/356 381/95/356 396/104/356 397/105/356
f 390/99/357 389/97/357 404/103/357 405/106/357
f 383/100/358 382/98/358 397/105/358 398/107/358
f 391/101/359 390/99/359 405/106/359 406/108/359
f 384/85/360 383/100/360 398/107/360 399/109/360
f 392/87/361 391/101/361 406/108/361 407/110/361
f 385/86/362 384/85/362 399/109/362 400/111/362
f 393/88/363 392/87/363 407/110/363 408/112/363
f 386/89/364 385/86/364 400/111/364 401/113/364
f 394/90/365 393/88/365 408/112/365 409/114/365
f 387/91/366 386/89/366 401/113/366 402/115/366
f 395/92/367 394/90/367 409/114/367 410/116/367
f 388/93/368 387/91/368 402/115/368 403/102/368
f 381/95/369 313/117/369 396/104/369
f 320/118/370 395/92/370 410/116/370
f 408/112/371 407/110/371 422/119/371 423/120/371
f 401/113/372 400/111/372 415/121/372 416/122/372
f 409/114/373 408/112/373 423/120/373 424/123/373
f 402/115/374 401/113/374 416/122/374 417/124/374
f 410/116/375 409/114/375 424/123/375 425/125/375
f 403/102/376 402/115/376 417/124/376 418/126/376
f 396/104/377 313/127/377 411/128/377
f 320/129/378 410/116/378 425/125/378
f 404/103/379 403/102/379 418/126/379 419/130/379
f 397/105/380 396/104/380 411/128/380 412/131/380
f 405/106/381 404/103/381 419/130/381 420/132/381
f 398/107/382 397/105/382 412/131/382 413/133/382
f 406/108/383 405/106/383 420/132/383 421/134/383
f 399/109/384 398/107/384 413/133/384 414/135/384
f 407/110/385 406/108/385 421/134/385 422/119/385
f 400/111/386 399/109/386 414/135/386 415/121/386
f 420/132/387 419/130/387 434/136/387 435/137/387
f 413/133/388 412/131/388 427/138/388 428/139/388
f 421/134/389 420/132/389 435/137/389 436/140/389
f 414/135/390 413/133/390 428/139/390 429/141/390
f 422/119/391 421/134/391 436/140/391 437/142/391
f 415/121/392 414/135/392 429/141/392 430/143/392
f 423/120/393 422/119/393 437/142/393 438/144/393
f 416/122/394 415/121/394 430/143/394 431/145/394
f 424/123/395 423/120/395 438/144/395 439/146/395
f 417/124/396 416/122/396 431/145/396 432/147/396
f 425/125/397 424/123/397 439/146/397 440/148/397
f 418/126/398 417/124/398 432/147/398 433/149/398
f 411/128/399 313/150/399 426/151/399
f 320/152/400 425/125/400 440/148/400
f 419/130/401 418/126/401 433/149/401 434/136/401
f 412/131/402 411/128/402 426/151/402 427/138/402
f 439/146/403 438/144/403 453/153/403 454/154/403
f 432/147/404 431/145/404 446/155/404 447/156/404
f 440/148/405 439/146/405 454/154/405 455/157/405
f 433/149/406 432/147/406 447/156/406 448/158/406
f 426/151/407 313/159/407 441/160/407
f 320/161/408 440/148/408 455/157/408
f 434/136/409 433/149/409 448/158/409 449/162/409
f 427/138/410 426/151/410 441/160/410 442/163/410
f 435/137/411 434/136/411 449/162/411 450/164/411
f 428/139/412 427/138/412 442/163/412 443/165/412
f 436/140/413 435/137/413 450/164/413 451/166/413
f 429/141/414 428/139/414 443/165/414 444/167/414
f 437/142/415 436/140/415 451/166/415 452/168/415
f 430/143/416 429/141/416 444/167/416 445/169/416
f 438/144/417 437/142/417 452/168/417 453/153/417
f 431/145/418 430/143/418 445/169/418 446/155/418
f 443/165/419 442/163/419 457/170/419 458/171/419
f 451/166/420 450/164/420 465/172/420 466/173/420
f 444/167/421 443/165/421 458/171/421 459/174/421
f 452/168/422 451/166/422 466/173/422 467/175/422
f 445/169/423 444/167/423 459/174/423 460/176/423
f 453/153/424 452/168/424 467/175/424 468/177/424
f 446/155/425 445/169/425 460/176/425 461/178/425
f 454/154/426 453/153/426 468/177/426 469/179/426
f 447/156/427 446/155/427 461/178/427 462/180/427
f 455/157/428 454/154/428 469/179/428 470/181/428
f 448/158/429 447/156/429 462/180/429 463/182/429
f 441/160/430 313/183/430 456/184/430
f 320/185/431 455/157/431 470/181/431
f 449/162/432 448/158/432 463/182/432 464/186/432
f 442/163/433 441/160/433 456/184/433 457/170/433
f 450/164/434 449/162/434 464/186/434 465/172/434
f 462/180/435 461/178/435 476/187/435 477/188/435
f 470/181/436 469/179/436 484/189/436 485/190/436
f 463/182/437 462/180/437 477/188/437 478/191/437
f 456/184/438 313/192/438 471/193/438
f 320/194/439 470/181/439 485/190/439
f 464/186/440 463/182/440 478/191/440 479/195/440
f 457/170/441 456/184/441 471/193/441 472/196/441
f 465/172/442 464/186/442 479/195/442 480/197/442
f 458/171/443 457/170/443 472/196/443 473/198/443
f 466/173/444 465/172/444 480/197/444 481/199/444
f 459/174/445 458/171/445 473/198/445 474/200/445
f 467/175/446 466/173/446 481/199/446 482/201/446
f 460/176/447 459/174/447 474/200/447 475/202/447
f 468/177/448 467/175/448 482/201/448 483/203/448
f 461/178/449 460/176/449 475/202/449 476/187/449
f 469/179/450 468/177/450 483/203/450 484/189/450
f 481/199/451 480/197/451 495/204/451 496/205/451
f 474/200/452 473/198/452 488/206/452 489/207/452
f 482/201/453 481/199/453 496/205/453 497/208/453
f 475/202/454 474/200/454 489/207/454 490/209/454
f 483/203/455 482/201/455 497/208/455 498/210/455
f 476/187/456 475/202/456 490/209/456 491/211/456
f 484/189/457 483/203/457 498/210/457 499/212/457
f 477/188/458 476/187/458 491/211/458 492/213/458
f 485/190/459 484/189/459 499/212/459 500/214/459
f 478/191/460 477/188/460 492/213/460 493/215/460
f 471/193/461 313/216/461 486/217/461
f 320/218/462 485/190/462 500/214/462
f 479/195/463 478/191/463 493/215/463 494/219/463
f 472/196/464 471/193/464 486/217/464 487/220/464
f 480/197/465 479/195/465 494/219/465 495/204/465
f 473/198/466 472/196/466 487/220/466 488/206/466
f 500/214/467 499/212/467 514/221/467 515/222/467
f 493/215/468 492/213/468 507/223/468 508/224/468
f 486/217/469 313/225/469 501/226/469
f 320/227/470 500/214/470 515/222/470
f 494/219/471 493/215/471 508/224/471 509/228/471
f 487/220/472 486/217/472 501/226/472 502/229/472
f 495/204/473 494/219/473 509/228/473 510/230/473
f 488/206/474 487/220/474 502/229/474 503/231/474
f 496/205/475 495/204/475 510/230/475 511/232/475
f 489/207/476 488/206/476 503/231/476 504/233/476
f 497/208/477 496/205/477 511/232/477 512/234/477
f 490/209/478 489/207/478 504/233/478 505/235/478
f 498/210/479 497/208/479 512/234/479 513/236/479
f 491/211/480 490/209/480 505/235/480 506/237/480
f 499/212/481 498/210/481 513/236/481 514/221/481
f 492/213/482 491/211/482 506/237/482 507/223/482
f 504/233/483 503/231/483 518/238/483 519/239/483
f 512/234/484 511/232/484 526/240/484 527/241/484
f 505/235/485 504/233/485 519/239/485 520/242/485
f 513/236/486 512/234/486 527/241/486 528/243/486
f 506/237/487 505/235/487 520/242/487 521/244/487
f 514/221/488 513/236/488 528/243/488 529/245/488
f 507/223/489 506/237/489 521/244/489 522/246/489
f 515/222/490 514/221/490 529/245/490 530/247/490
f 508/224/491 507/223/491 522/246/491 523/248/491
f 501/226/492 313/249/492 516/250/492
f 320/251/493 515/222/493 530/247/493
f 509/228/494 508/224/494 523/248/494 524/252/494
f 502/229/495 501/226/495 516/250/495 517/253/495
f 510/230/496 509/228/496 524/252/496 525/254/496
f 503/231/497 502/229/497 517/253/497 518/238/497
f 511/232/498 510/230/498 525/254/498 526/240/498
f 523/248/499 522/246/499 537/255/499 538/256/499
f 516/250/500 313/257/500 531/258/500
f 320/259/501 530/247/501 545/260/501
f 524/252/502 523/248/502 538/256/502 539/261/502
f 517/253/503 516/250/503 531/258/503 532/262/503
f 525/254/504 524/252/504 539/261/504 540/263/504
f 518/238/505 517/253/505 532/262/505 533/264/505
f 526/240/506 525/254/506 540/263/506 541/265/506
f 519/239/507 518/238/507 533/264/507 534/266/507
f 527/241/508 526/240/508 541/265/508 542/267/508
f 520/242/509 519/239/509 534/266/509 535/268/509
f 528/243/510 527/241/510 542/267/510 543/269/510
f 521/244/511 520/242/511 535/268/511 536/270/511
f 529/245/512 528/243/512 543/269/512 544/271/512
f 522/246/513 521/244/513 536/270/513 537/255/513
f 530/247/514 529/245/514 544/271/514 545/260/514
f 542/267/515 541/265/515 556/272/515 557/273/515
f 535/268/516 534/266/516 549/274/516 550/275/516
f 543/269/517 542/267/517 557/273/517 558/276/517
f 536/270/518 535/268/518 550/275/518 551/277/518
f 544/271/519 543/269/519 558/276/519 559/278/519
f 537/255/520 536/270/520 551/277/520 552/279/520
f 545/260/521 544/271/521 559/278/521 560/280/521
f 538/256/522 537/255/522 552/279/522 553/281/522
f 531/258/523 313/282/523 546/283/523
f 320/284/524 545/260/524 560/280/524
f 539/261/525 538/256/525 553/281/525 554/285/525
f 532/262/526 531/258/526 546/283/526 547/286/526
f 540/263/527 539/261/527 554/285/527 555/287/527
f 533/264/528 532/262/528 547/286/528 548/288/528
f 541/265/529 540/263/529 555/287/529 556/272/529
f 534/266/530 533/264/530 548/288/530 549/274/530
f 320/289/531 560/280/531 575/290/531
f 554/285/532 553/281/532 568/291/532 569/292/532
f 547/286/533 546/283/533 561/293/533 562/294/533
f 555/287/534 554/285/534 569/292/534 570/295/534
f 548/288/535 547/286/535 562/294/535 563/296/535
f 556/272/536 555/287/536 570/295/536 571/297/536
f 549/274/537 548/288/537 563/296/537 564/298/537
f 557/273/538 556/272/538 571/297/538 572/299/538
f 550/275/539 549/274/539 564/298/539 565/300/539
f 558/276/540 557/273/540 572/299/540 573/301/540
f 551/277/541 550/275/541 565/300/541 566/302/541
f 559/278/542 558/276/542 573/301/542 574/303/542
f 552/279/543 551/277/543 566/302/543 567/304/543
f 560/280/544 559/278/544 574/303/544 575/290/544
f 553/281/545 552/279/545 567/304/545 568/291/545
f 546/283/546 313/305/546 561/293/546
f 573/301/547 572/299/547 587/306/547 588/307/547
f 566/302/548 565/300/548 580/308/548 581/309/548
f 574/303/549 573/301/549 588/307/549 589/310/549
f 567/304/550 566/302/550 581/309/550 582/311/550
f 575/290/551 574/303/551 589/310/551 590/312/551
f 568/291/552 567/304/552 582/311/552 583/313/552
f 561/293/553 313/314/553 576/315/553
f 320/316/554 575/290/554 590/312/554
f 569/292/555 568/291/555 583/313/555 584/317/555
f 562/294/556 561/293/556 576/315/556 577/318/556
f 570/295/557 569/292/557 584/317/557 585/319/557
f 563/296/558 562/294/558 577/318/558 578/320/558
f 571/297/559 570/295/559 585/319/559 586/321/559
f 564/298/560 563/296/560 578/320/560 579/322/560
f 572/299/561 571/297/561 586/321/561 587/306/561
f 565/300/562 564/298/562 579/322/562 580/308/562
f 577/318/563 576/315/563 591/323/563 592/324/563
f 585/319/564 584/317/564 599/325/564 600/326/564
f 578/320/565 577/318/565 592/324/565 593/327/565
f 586/321/566 585/319/566 600/326/566 601/328/566
f 579/322/567 578/320/567 593/327/567 594/329/567
f 587/306/568 586/321/568 601/328/568 602/330/568
f 580/308/569 579/322/569 594/329/569 595/331/569
f 588/307/570 587/306/570 602/330/570 603/332/570
f 581/309/571 580/308/571 595/331/571 596/333/571
f 589/310/572 588/307/572 603/332/572 604/334/572
f 582/311/573 581/309/573 596/333/573 597/335/573
f 590/312/574 589/310/574 604/334/574 605/336/574
f 583/313/575 582/311/575 597/335/575 598/337/575
f 576/315/576 313/338/576 591/323/576
f 320/339/577 590/312/577 605/336/577
f 584/317/578 583/313/578 598/337/578 599/325/578
f 596/333/579 595/331/579 610/340/579 611/341/579
f 604/334/580 603/332/580 618/342/580 619/343/580
f 597/335/581 596/333/581 611/341/581 612/344/581
f 605/336/582 604/334/582 619/343/582 620/345/582
f 598/337/583 597/335/583 612/344/583 613/346/583
f 591/323/584 313/347/584 606/348/584
f 320/349/585 605/336/585 620/345/585
f 599/325/586 598/337/586 613/346/586 614/350/586
f 592/324/587 591/323/587 606/348/587 607/351/587
f 600/326/588 599/325/588 614/350/588 615/352/588
f 593/327/589 592/324/589 607/351/589 608/353/589
f 601/328/590 600/326/590 615/352/590 616/354/590
f 594/329/591 593/327/591 608/353/591 609/355/591
f 602/330/592 601/328/592 616/354/592 617/356/592
f 595/331/593 594/329/593 609/355/593 610/340/593
f 603/332/594 602/330/594 617/356/594 618/342/594
f 615/352/595 614/350/595 629/357/595 630/358/595
f 608/353/596 607/351/596 622/359/596 623/360/596
f 616/354/597 615/352/597 630/358/597 631/361/597
f 609/355/598 608/353/598 623/360/598 624/362/598
f 617/356/599 616/354/599 631/361/599 632/363/599
f 610/340/600 609/355/600 624/362/600 625/364/600
f 618/342/601 617/356/601 632/363/601 633/365/601
f 611/341/602 610/340/602 625/364/602 626/366/602
f 619/343/603 618/342/603 633/365/603 634/367/603
f 612/344/604 611/341/604 626/366/604 627/368/604
f 620/345/605 619/343/605 634/367/605 635/369/605
f 613/346/606 612/344/606 627/368/606 628/370/606
f 606/348/607 313/371/607 621/372/607
f 320/373/608 620/345/608 635/369/608
f 614/350/609 613/346/609 628/370/609 629/357/609
f 607/351/610 606/348/610 621/372/610 622/359/610
f 634/367/611 633/365/611 648/374/611 649/375/611
f 627/368/612 626/366/612 641/376/612 642/377/612
f 635/369/613 634/367/613 649/375/613 650/378/613
f 628/370/614 627/368/614 642/377/614 643/379/614
f 621/372/615 313/380/615 636/381/615
f 320/382/616 635/369/616 650/378/616
f 629/357/617 628/370/617 643/379/617 644/383/617
f 622/359/618 621/372/618 636/381/618 637/384/618
f 630/358/619 629/357/619 644/383/619 645/385/619
f 623/360/620 622/359/620 637/384/620 638/386/620
f 631/361/621 630/358/621 645/385/621 646/387/621
f 624/362/622 623/360/622 638/386/622 639/388/622
f 632/363/623 631/361/623 646/387/623 647/389/623
f 625/364/624 624/362/624 639/388/624 640/390/624
f 633/365/625 632/363/625 647/389/625 648/374/625
f 626/366/626 625/364/626 640/390/626 641/376/626
f 638/386/627 637/384/627 652/391/627 653/392/627
f 646/387/628 645/385/628 660/393/628 661/394/628
f 639/388/629 638/386/629 653/392/629 654/395/629
f 647/389/630 646/387/630 661/394/630 662/396/630
f 640/390/631 639/388/631 654/395/631 655/397/631
f 648/374/632 647/389/632 662/396/632 663/398/632
f 641/376/633 640/390/633 655/397/633 656/399/633
f 649/375/634 648/374/634 663/398/634 664/400/634
f 642/377/635 641/376/635 656/399/635 657/401/635
f 650/378/636 649/375/636 664/400/636 665/402/636
f 643/379/637 642/377/637 657/401/637 658/403/637
f 636/381/638 313/404/638 651/405/638
f 320/406/639 650/378/639 665/402/639
f 644/383/640 643/379/640 658/403/640 659/407/640
f 637/384/641 636/381/641 651/405/641 652/391/641
f 645/385/642 644/383/642 659/407/642 660/393/642
f 657/401/643 656/399/643 671/408/643 672/409/643
f 665/402/644 664/400/644 679/410/644 680/411/644
f 658/403/645 657/401/645 672/409/645 673/412/645
f 651/405/646 313/413/646 666/414/646
f 320/415/647 665/402/647 680/411/647
f 659/407/648 658/403/648 673/412/648 674/416/648
f 652/391/649 651/405/649 666/414/649 667/417/649
f 660/393/650 659/407/650 674/416/650 675/418/650
f 653/392/651 652/391/651 667/417/651 668/419/651
f 661/394/652 660/393/652 675/418/652 676/420/652
f 654/395/653 653/392/653 668/419/653 669/421/653
f 662/396/654 661/394/654 676/420/654 677/422/654
f 655/397/655 654/395/655 669/421/655 670/423/655
f 663/398/656 662/396/656 677/422/656 678/424/656
f 656/399/657 655/397/657 670/423/657 671/408/657
f 664/400/658 663/398/658 678/424/658 679/410/658
f 676/425/659 675/426/659 690/427/659 691/428/659
f 669/429/660 668/430/660 683/431/660 684/432/660
f 677/433/661 676/425/661 691/428/661 692/434/661
f 670/435/662 669/429/662 684/432/662 685/436/662
f 678/437/663 677/433/663 692/434/663 693/438/663
f 671/439/664 670/435/664 685/436/664 686/440/664
f 679/441/665 678/437/665 693/438/665 694/442/665
f 672/443/666 671/439/666 686/440/666 687/444/666
f 680/445/667 679/441/667 694/442/667 695/446/667
f 673/447/668 672/443/668 687/444/668 688/448/668
f 666/449/669 313/450/669 681/451/669
f 320/452/670 680/445/670 695/446/670
f 674/453/671 673/447/671 688/448/671 689/454/671
f 667/455/672 666/449/672 681/451/672 682/456/672
f 675/426/673 674/453/673 689/454/673 690/427/673
f 668/430/674 667/455/674 682/456/674 683/431/674
f 695/446/675 694/442/675 709/457/675 710/458/675
f 688/448/676 687/444/676 702/459/676 703/460/676
f 681/451/677 313/461/677 696/462/677
f 320/463/678 695/446/678 710/458/678
f 689/454/679 688/448/679 703/460/679 704/464/679
f 682/456/680 681/451/680 696/462/680 697/465/680
f 690/427/681 689/454/681 704/464/681 705/466/681
f 683/431/682 682/456/682 697/465/682 698/467/682
f 691/428/683 690/427/683 705/466/683 706/468/683
f 684/432/684 683/431/684 698/467/684 699/469/684
f 692/434/685 691/428/685 706/468/685 707/470/685
f 685/436/686 684/432/686 699/469/686 700/471/686
f 693/438/687 692/434/687 707/470/687 708/472/687
f 686/440/688 685/436/688 700/471/688 701/473/688
f 694/442/689 693/438/689 708/472/689 709/457/689
f 687/444/690 686/440/690 701/473/690 702/459/690
f 707/470/691 706/468/691 721/474/691 722/475/691
f 700/471/692 699/469/692 714/476/692 715/477/692
f 708/472/693 707/470/693 722/475/693 723/478/693
f 701/473/694 700/471/694 715/477/694 716/479/694
f 709/457/695 708/472/695 723/478/695 724/480/695
f 702/459/696 701/473/696 716/479/696 717/481/696
f 710/458/697 709/457/697 724/480/697 725/482/697
f 703/460/698 702/459/698 717/481/698 718/483/698
f 696/462/699 313/484/699 711/485/699
f 320/486/700 710/458/700 725/482/700
f 704/464/701 703/460/701 718/483/701 719/487/701
f 697/465/702 696/462/702 711/485/702 712/488/702
f 705/466/703 704/464/703 719/487/703 720/489/703
f 698/467/704 697/465/704 712/488/704 713/490/704
f 706/468/705 705/466/705 720/489/705 721/474/705
f 699/469/706 698/467/706 713/490/706 714/476/706
f 711/485/707 313/491/707 726/492/707
f 320/493/708 725/482/708 740/494/708
f 719/487/709 718/483/709 733/495/709 734/496/709
f 712/488/710 711/485/710 726/492/710 727/497/710
f 720/489/711 719/487/711 734/496/711 735/498/711
f 713/490/712 712/488/712 727/497/712 728/499/712
f 721/474/713 720/489/713 735/498/713 736/500/713
f 714/476/714 713/490/714 728/499/714 729/501/714
f 722/475/715 721/474/715 736/500/715 737/502/715
f 715/477/716 714/476/716 729/501/716 730/503/716
f 723/478/717 722/475/717 737/502/717 738/504/717
f 716/479/718 715/477/718 730/503/718 731/505/718
f 724/480/719 723/478/719 738/504/719 739/506/719
f 717/481/720 716/479/720 731/505/720 732/507/720
f 725/482/721 724/480/721 739/506/721 740/494/721
f 718/483/722 717/481/722 732/507/722 733/495/722
f 730/503/723 729/501/723 744/508/723 745/509/723
f 738/504/724 737/502/724 752/510/724 753/511/724
f 731/505/725 730/503/725 745/509/725 746/512/725
f 739/506/726 738/504/726 753/511/726 754/513/726
f 732/507/727 731/505/727 746/512/727 747/514/727
f 740/494/728 739/506/728 754/513/728 755/515/728
f 733/495/729 732/507/729 747/514/729 748/516/729
f 726/492/730 313/517/730 741/518/730
f 320/519/731 740/494/731 755/515/731
f 734/496/732 733/495/732 748/516/732 749/520/732
f 727/497/733 726/492/733 741/518/733 742/521/733
f 735/498/734 734/496/734 749/520/734 750/522/734
f 728/499/735 727/497/735 742/521/735 743/523/735
f 736/500/736 735/498/736 750/522/736 751/524/736
f 729/501/737 728/499/737 743/523/737 744/508/737
f 737/502/738 736/500/738 751/524/738 752/510/738
f 749/520/739 748/516/739 763/525/739 764/526/739
f 742/521/740 741/518/740 756/527/740 757/528/740
f 750/522/741 749/520/741 764/526/741 765/529/741
f 743/523/742 742/521/742 757/528/742 758/530/742
f 751/524/743 750/522/743 765/529/743 766/531/743
f 744/508/744 743/523/744 758/530/744 759/532/744
f 752/510/745 751/524/745 766/531/745 767/533/745
f 745/509/746 744/508/746 759/532/746 760/534/746
f 753/511/747 752/510/747 767/533/747 768/535/747
f 746/512/748 745/509/748 760/534/748 761/536/748
f 754/513/749 753/511/749 768/535/749 769/537/749
f 747/514/750 746/512/750 761/536/750 762/538/750
f 755/515/751 754/513/751 769/537/751 770/539/751
f 748/516/752 747/514/752 762/538/752 763/525/752
f 741/518/753 313/540/753 756/527/753
f 320/541/754 755/515/754 770/539/754
f 768/535/755 767/533/755 782/542/755 783/543/755
f 761/536/756 760/534/756 775/544/756 776/545/756
f 769/537/757 768/535/757 783/543/757 784/546/757
f 762/538/758 761/536/758 776/545/758 777/547/758
f 770/539/759 769/537/759 784/546/759 785/548/759
f 763/525/760 762/538/760 777/547/760 778/549/760
f 756/527/761 313/550/761 771/551/761
f 320/552/762 770/539/762 785/548/762
f 764/526/763 763/525/763 778/549/763 779/553/763
f 757/528/764 756/527/764 771/551/764 772/554/764
f 765/529/765 764/526/765 779/553/765 780/555/765
f 758/530/766 757/528/766 772/554/766 773/556/766
f 766/531/767 765/529/767 780/555/767 781/557/767
f 759/532/768 758/530/768 773/556/768 774/558/768
f 767/533/769 766/531/769 781/557/769 782/542/769
f 760/534/770 759/532/770 774/558/770 775/544/770
f 772/554/771 771/551/771 786/7/771 787/6/771
f 780/555/772 779/553/772 318/2/772 790/10/772
f 773/556/773 772/554/773 787/6/773 314/12/773
f 781/557/774 780/555/774 790/10/774 319/14/774
f 774/558/775 773/556/775 314/12/775 788/16/775
f 782/542/776 781/557/776 319/14/776 791/18/776
f 775/544/777 774/558/777 788/16/777 315/20/777
f 783/543/778 782/542/778 791/18/778 792/22/778
f 776/545/779 775/544/779 315/20/779 789/24/779
f 784/546/780 783/543/780 792/22/780 793/26/780
f 777/547/781 776/545/781 789/24/781 316/28/781
f 785/548/782 784/546/782 793/26/782 794/30/782
f 778/549/783 777/547/783 316/28/783 317/3/783
f 771/551/784 313/559/784 786/7/784
f 320/560/785 785/548/785 794/30/785
f 779/553/786 778/549/786 317/3/786 318/2/786
